<?xml version="1.0" encoding="UTF-8" standalone="no"?><!DOCTYPE svg PUBLIC "-//W3C//DTD SVG 1.1//EN" "http://www.w3.org/Graphics/SVG/1.1/DTD/svg11.dtd"><svg width="100%" height="100%" viewBox="0 0 1914 251" version="1.1" xmlns="http://www.w3.org/2000/svg" xmlns:xlink="http://www.w3.org/1999/xlink" xml:space="preserve" xmlns:serif="http://www.serif.com/" style="fill-rule:evenodd;clip-rule:evenodd;stroke-linejoin:round;stroke-miterlimit:2;"><rect id="Plan-de-travail1" serif:id="Plan de travail1" x="-0" y="-0" width="1913.92" height="250.616" style="fill:none;"/><g id="XMLID_1_"><path id="XMLID_40_" d="M78.962,218.633c-1.031,-0.515 -0.516,0 -0.516,-0.515l0.516,0.515Zm-60.813,-159.761l1.031,0c1.546,2.577 4.123,2.062 7.215,3.608c0.515,-0 2.061,1.031 2.577,1.031c0.515,-0 1.031,-0.516 1.546,-0.516c2.061,0 2.061,1.546 4.638,1.031c2.062,-0.515 3.092,1.031 5.154,1.031l-0,-1.546l1.03,-0c0,0.515 0.516,1.03 0.516,1.546l1.03,-0c0.516,0.515 0.516,0.515 0.516,1.03l-0,1.031c0.515,0.515 1.546,0.515 2.577,0.515c-0,-1.03 -0.516,-1.03 -0.516,-1.546c1.031,0 3.092,-0.515 3.608,0c1.03,0 2.061,1.031 3.092,1.546c1.546,0.516 1.546,-1.03 3.092,-0.515l1.031,1.031c2.061,1.031 4.123,-1.031 6.184,-0.516l0.515,0.516c1.031,-0 2.062,-0.516 3.608,-0.516c2.061,0 4.123,0.516 6.184,0.516c0.516,-0 2.062,-1.031 2.577,-1.031c1.546,-0.515 3.092,0 4.123,0l5.669,-0.515l1.546,-0c2.577,-0.516 5.669,-1.031 8.246,-1.546l2.061,-0c0.515,-0 1.031,-0.516 1.546,-0.516l1.031,0.516c1.031,-0 2.061,-1.031 2.577,-1.546c1.03,-0.516 1.546,0.515 2.061,-0c0.515,-0 2.577,-0.516 3.092,-0.516l2.062,0c1.03,0 1.03,-0.515 2.576,-0.515c1.546,-0 2.577,-1.546 3.608,-1.031c1.031,0.516 1.546,0.516 3.092,0.516c2.061,-1.547 4.638,-0 7.215,-0.516c1.031,0 4.638,-1.031 6.184,-0.515c0.516,-0 0.516,0.515 1.546,0.515c1.031,0 3.093,-1.031 4.123,-0.515l1.546,0.515c1.031,0.516 3.093,-0.515 4.639,-0.515l-0,0.515c-0.516,0.516 -0.516,0.516 -0.516,1.031l1.546,-0c0.516,-1.031 0.516,-1.546 0.516,-2.577c1.03,0.515 1.546,0.515 3.092,0.515l-0,0.516c1.031,0.515 1.031,1.031 2.577,1.031c0.515,-0.516 4.122,-1.547 4.638,-1.547c1.031,0.516 1.546,1.547 3.092,2.062c-0,-1.031 -0,-1.031 0.515,-1.546c1.546,1.546 3.092,0.515 5.669,1.031c1.031,0.515 2.577,1.03 3.608,1.546l1.546,-0l4.638,1.546l1.031,1.03l5.153,0c1.546,4.123 5.669,2.577 8.761,4.123l0.516,1.031l2.061,-0c1.031,0.515 1.546,2.061 2.577,2.577l1.031,-0l3.607,2.061c1.031,1.031 2.062,3.092 3.092,3.608l1.546,0.515l0.516,1.031c1.031,0.515 1.546,-0 2.061,1.546c-0.515,0.515 0,2.061 0.516,2.577c1.546,1.546 4.638,2.576 5.153,4.638l0,0.515c1.546,1.031 3.092,2.577 4.123,3.608c0.515,0.515 0,1.03 0.515,1.546c2.577,2.061 5.154,2.577 7.731,3.607c-2.062,5.154 -4.638,9.792 -6.185,15.461c-0.515,2.061 0,4.123 -0.515,6.184c-0.515,1.546 -1.546,3.608 -2.061,5.154c-0.516,1.546 -0,2.577 -0.516,3.607c-0.515,0.516 -1.546,1.031 -1.546,2.062c-0.515,1.031 0,1.546 -0.515,2.577c-1.031,1.546 -2.062,3.092 -3.092,4.122c-0.516,0.516 -1.031,1.031 -2.062,1.547c-1.03,1.546 -3.607,5.153 -4.638,6.184l-1.546,-0l-1.546,1.546c-0.515,-0 -1.546,0.515 -2.061,0.515c-1.031,0.516 -2.062,2.062 -3.093,2.577c-0.515,0 -1.546,0.515 -2.061,0.515c-1.031,1.031 -2.577,2.062 -3.608,3.093c0,0.515 0.516,1.546 0.516,2.061l-0.516,0c-1.03,-1.031 -1.03,-2.061 -3.092,-2.061c-0.515,0.515 -1.546,2.061 -2.577,2.061c-0.515,0.515 -1.546,0 -2.061,0.515l-1.031,1.031l-3.092,0c-1.031,0.515 -2.577,1.546 -3.607,1.546c-1.031,0 -1.546,-1.031 -2.577,-0.515c-5.669,1.546 -12.369,2.061 -18.038,3.092l-3.607,-0c-4.638,1.031 -9.277,-0.515 -13.399,-0c-1.031,-0 -1.031,-0.515 -1.546,-0.515l-2.062,-0c-1.546,-0.516 -4.123,-1.546 -6.7,-0.516c0.516,1.546 -0.515,2.577 0,4.123c1.546,5.669 0,14.43 0,21.645c-1.546,0 -3.607,1.546 -3.607,3.092l0.515,1.031l1.546,-0c1.031,-0.515 2.577,1.031 3.092,1.546c0,1.031 0,2.577 0.516,3.608l1.031,1.03c0.515,1.031 -0.516,2.577 -0,3.608c0.515,1.546 2.061,2.061 2.576,3.607c1.031,1.031 1.031,2.577 1.546,3.608c1.031,-0.516 1.031,-0.516 2.062,-0.516c0.515,1.031 1.031,2.577 1.546,3.093l1.031,-0l-0,0.515c1.546,0.515 1.03,1.031 2.576,1.546c1.031,0.515 4.639,-1.031 6.185,-1.546c0.515,1.031 -0,6.184 -0,8.761c-0.516,0.515 -1.031,0.515 -2.062,0.515c-1.546,-1.03 -3.092,0 -4.638,0c-5.153,-1.03 -8.761,0 -13.915,0c-3.607,-0.515 -11.337,0.516 -15.46,1.031l-6.185,0c-3.092,1.031 -6.699,0.515 -9.276,1.546l-2.577,0c-1.546,0.516 -4.638,1.031 -6.184,1.031l-2.577,-0c-2.577,0.515 -5.153,2.577 -8.246,3.092c0,-1.546 -0.515,-4.638 -0.515,-5.669c-0.515,-1.031 -1.546,-1.546 -2.061,-3.092l0.515,-0c0.515,-0.515 1.546,-0.515 3.092,-0.515l0.515,0.515l0,1.546l0.516,0l1.031,-0.515c0.515,0.515 0.515,0.515 0.515,1.546l1.031,-0l-0,-0.516c-0,-1.03 -0.516,-2.576 -0.516,-3.092c0,-1.03 0.516,-1.03 1.031,-1.03c0.515,0.515 0.515,0.515 1.031,0.515l-0,-0.515c1.546,-1.547 3.607,-3.608 6.184,-4.639c0.515,0.516 0.515,0.516 1.546,0.516l0.515,-1.031c-1.03,-0.515 -1.546,-0.515 -2.061,-1.031c0.515,-0.515 2.061,-2.577 2.577,-3.092c-0.516,-0.515 -0.516,0 -0.516,-0.515c1.546,-0.516 2.577,-3.092 3.093,-4.639c-1.031,-1.03 -0,-2.061 -0,-3.607c-0.516,-3.092 -0,-7.215 -0,-10.307c-0,-0.516 -0.516,-1.031 -0.516,-2.577c0,-0.515 0.516,-0.515 0.516,-1.546c-0.516,-3.608 -0.516,-8.246 0.515,-12.884c-0,-0.515 -0.515,-1.031 -0.515,-1.546c-0,-1.031 0.515,-3.608 1.03,-4.123l0,-3.092l0.516,-2.577l-0,-3.092c-0,-1.031 1.03,-1.546 0.515,-2.577l-0,-4.123l-0.515,-0.515c-0.516,-1.031 0.515,-2.061 -0,-3.092c0.515,-1.031 1.546,-1.546 1.03,-3.092l-0.515,-2.062l0.515,-1.03c0,-1.031 -1.03,-2.062 -1.03,-2.577l-0,-2.577l-1.031,-1.031c0.515,-0.515 0.515,-1.03 1.031,-2.061c-0,-1.031 -0.516,-3.608 -1.031,-4.638c-0.515,-1.031 0.515,-1.546 0.515,-2.577l-0.515,-0.516l-0,-3.607l1.031,-1.031c-0,-1.03 -1.031,-2.577 -1.546,-3.607c-0,-0.516 0.515,-0.516 0.515,-1.546l-0.515,-2.062c-0,-1.03 0.515,-1.03 0.515,-1.546l-0.515,-3.607c-1.547,-3.092 -5.154,-5.669 -8.246,-7.215c-1.031,-0.516 -1.031,-0 -2.062,-0c-1.546,-0.516 -4.638,-2.577 -5.153,-3.608l0.515,-0.515l-0.515,-0.516c1.031,-0.515 1.546,-1.546 2.061,-3.092c-0.515,-0.515 -0.515,-0.515 -0.515,-1.03l0.515,-0c0.516,0.515 1.546,1.546 2.062,1.546c1.03,-0.516 1.546,-1.546 3.092,-1.546c0.515,0.515 1.031,-0 2.061,-0c1.031,-0 3.092,1.546 4.123,1.546c1.031,0.515 3.092,-0.516 4.638,-0.516c0.516,1.031 0.516,1.031 1.031,1.031c1.031,-1.546 4.123,0 6.184,-0.515c0.516,-0 1.546,-0.516 3.092,-0.516c0.516,0.516 0.516,1.031 1.547,1.031c0.515,-0.515 5.668,-1.031 7.215,-0.515c0.515,-0 3.092,0.515 4.122,-0c0.516,-0 0.516,-0.516 1.546,-0.516c0.516,0 2.062,0.516 3.093,0.516c0.515,-0 0.515,-0.516 1.03,-0.516c1.546,0.516 3.608,0.516 5.669,0c0.516,0.516 1.031,1.031 2.062,1.546c0.515,-0.515 8.245,-1.546 10.307,-2.061l-0,1.031l-2.062,3.607c0.516,0.516 1.547,1.031 2.062,1.031c-0,1.031 0.515,1.031 0.515,2.061c-3.607,0 -5.669,1.031 -8.761,3.092c-1.031,0.516 -2.577,0.516 -3.092,1.547l0,2.061l-1.546,-0l-0.515,0.515l-0,2.577c-1.031,0.515 -2.577,2.062 -3.093,3.092l0,1.546c-0.515,1.031 -1.03,1.031 -1.546,2.577c0,1.031 0.516,1.031 0.516,1.031l-0,5.153c-1.031,4.123 -1.546,8.246 -0,11.854c-0.516,1.03 -1.546,4.122 -1.546,5.153c-0.516,2.577 1.03,4.638 1.546,6.7c-2.577,1.546 -1.546,4.638 -1.546,8.246c1.03,-0.516 0.515,-0.516 1.546,-1.031c1.03,-0.515 6.184,0.515 7.73,0.515l7.73,0c0.516,0 1.031,0.516 1.547,0.516c2.061,-0.516 3.607,-0.516 6.184,-0.516c1.546,2.577 3.092,-1.546 5.153,-1.03c3.608,0.515 5.154,-1.547 7.215,-3.093c0.516,-0.515 1.031,0 2.062,0l0.515,-1.03l1.546,-0l0.516,-1.031l1.546,-0c0.515,-0.515 0.515,-1.031 1.546,-1.031c0.515,0.516 0.515,1.031 1.03,0.516l0,-0.516c-0.515,-0.515 -0.515,-0.515 -0.515,-1.031c1.031,-0.515 4.123,-3.092 4.638,-4.122c0.516,-0.516 0.516,-1.546 1.031,-2.062c0.515,-0.515 1.031,-0.515 2.061,-1.031c1.031,-1.546 1.031,-4.122 2.062,-6.184c0.515,-1.031 1.546,-2.577 1.546,-3.607c-0,-1.031 -1.546,-1.546 -1.031,-3.092c0.516,-2.062 1.031,-4.123 0,-6.7c0,-1.031 0.516,-1.546 0.516,-2.062c0.515,-1.546 -1.031,-1.546 -0.516,-3.092c0,-0.515 1.031,-2.061 0.516,-3.092l-0.516,-0.515l0,-1.546l-0.515,-0.516l-0,-1.546c-0,-0.515 -1.031,-1.546 -1.546,-2.061l0.515,-1.546c-0.515,-0.516 -1.031,-0.516 -1.546,-1.546l0,-0.516c-1.546,-1.03 -2.061,-3.092 -3.092,-3.607l-1.546,-0.515c-0.515,-0.516 -1.031,-1.547 -1.546,-2.577c2.061,-0 2.577,-1.031 4.123,-1.546l2.061,-0c0.515,-0 0.515,-0.516 1.031,-0.516l1.031,0.516l-0,-5.154c-0.516,-0.515 -0.516,-1.031 -1.031,-2.061c-4.123,-2.062 -8.246,1.03 -12.369,-0l-1.03,-1.031l-1.547,-0c-0.515,-0 -2.576,-1.546 -3.607,-2.062l-0.515,-0.515l-1.546,0c-1.031,-0.515 -2.062,-2.061 -3.608,-2.577l-3.607,0c-2.062,-0.515 -5.154,-1.03 -7.731,-1.03l-1.546,0.515l-1.546,-1.546c-2.577,-0 -4.638,-0.515 -7.215,-0.515c-0.515,1.03 -1.031,1.546 -2.061,1.546l-2.062,-2.062c-1.546,-0.515 -11.338,0 -12.884,0.516l-3.092,-0c-0.515,-0 -1.546,1.546 -2.577,1.03l-1.03,-0.515c-1.547,-0.515 -3.093,1.031 -5.154,0.515c-1.031,-0.515 -4.638,-0.515 -6.184,0c-0.516,0 -1.031,0.516 -2.062,0.516c-1.546,-0.516 -4.123,-0 -5.669,0.515l-3.092,-0c-1.031,0.515 -2.577,1.546 -3.607,2.061c-2.062,0.516 -4.123,-1.03 -6.7,0l-1.546,1.546c-1.031,0.516 -2.061,-1.03 -3.608,0c-1.03,0.516 -3.092,1.547 -4.122,1.547c-1.547,0.515 -3.093,-0.516 -4.123,-0l-1.546,0.515c-1.546,0.515 -4.639,-0.515 -5.669,-0.515l-0.516,0.515c-0.515,-0 -1.03,-1.031 -2.061,-0.515l-1.031,1.03l-4.638,0c-0.515,0 -1.031,1.031 -1.546,1.546l-2.062,0c-1.03,-0.515 -4.122,0 -5.668,-0.515l-1.547,-0l-1.03,-1.031l-1.546,0c-0.516,0 -1.031,-1.03 -1.546,-1.546c-1.031,0 -2.062,0.516 -3.093,0.516c-0.515,-0.516 -1.546,-0.516 -2.576,-1.031c-0,-0.516 -0,-0.516 -0.516,-1.031c-0.515,-0.515 0,-1.031 0.516,-2.061l-1.031,-0c-0.515,-1.031 -0,-2.062 -0.515,-2.577l-1.546,-1.031l-0.516,-1.546c-0.515,-1.031 -2.577,-2.577 -2.577,-4.123l0,-3.092c-1.03,-1.031 -4.122,-2.577 -4.638,-4.123l0.516,-0.515c3.607,-2.062 2.576,-2.577 2.576,-3.608Zm205.628,53.598l0,-1.546c4.638,-0.516 12.884,-0 17.522,0.515l2.577,-0.515c1.031,-0 1.546,0.515 2.577,0.515c0.515,-0 1.546,-0.515 2.061,-0l1.031,0.515c2.061,0.516 4.638,0 6.7,-0.515c2.576,-0.515 6.699,-0 8.245,-0c1.031,-0 2.062,0.515 3.092,0.515c1.547,0.516 3.093,0 4.639,0c0.515,2.062 1.546,3.608 2.061,5.669c-4.123,0 -8.761,2.062 -10.307,4.123l-1.546,4.123l-0,1.031c-0.515,1.03 -1.031,1.03 -1.546,2.061l0.515,0.515c0,0.516 -0.515,0.516 -0.515,1.031l-0,2.062c-0,0.515 -0.516,0.515 -0.516,1.03c0,0.516 0.516,0.516 0.516,1.031l-1.031,0.515l-0.515,2.577l0.515,1.031c0.515,1.031 0,2.577 -0.515,3.607c-1.031,0 -1.546,0 -1.546,1.031c1.03,0.515 1.546,1.546 3.092,2.577c-0.516,0.515 -1.546,2.577 -1.031,3.607l0.515,0.516c0,0.515 -0.515,1.03 -0.515,2.061l0.515,0c0.516,1.031 -0.515,1.031 -0.515,2.062c0,0.515 0.515,1.03 0.515,1.546c-0.515,2.576 -1.03,3.092 -1.03,5.669c1.03,0.515 2.061,0.515 2.061,2.576c-1.031,1.031 -1.546,3.093 -2.061,4.123c0.515,0.516 1.546,1.031 2.061,1.031c-0.515,0.515 -1.031,1.546 -1.546,2.061c0.515,1.031 1.546,2.062 1.031,3.608l-1.031,1.031l0,3.607c0.515,2.577 2.062,3.608 3.608,5.154c0.515,0.515 1.03,1.546 1.546,2.061c2.576,2.062 6.184,3.092 10.822,3.092c0,3.092 -1.031,5.669 -1.031,8.761l-0.515,0c-1.546,0 -4.123,0.516 -4.638,0l-0.515,-0.515l-7.215,-0c-0.516,-0 -1.547,1.031 -2.577,1.031l-0.516,-1.031c-1.546,-0.515 -10.307,-0 -11.853,0.515c-2.577,0.516 -7.215,0 -9.276,0c-3.608,-0.515 -10.307,0 -13.4,0c-1.03,-1.546 -1.546,-4.638 -3.092,-6.184c1.031,-0.515 3.608,-0.515 4.638,-1.031l0,-1.546l2.577,-2.577l1.546,0c1.031,-0.515 0.516,-1.03 2.062,-1.546c0.515,1.031 -0,0.516 1.03,0.516c0,-0.516 0.516,-1.031 1.031,-1.546c0.516,-1.031 1.546,-8.246 1.031,-9.277l-0.515,-1.03l-0,-2.577c-1.031,-2.577 -0.516,-3.092 -0,-5.669l-0,-2.577c1.03,-4.123 2.061,-10.822 -0,-13.915c1.03,-0.515 1.546,-1.03 1.546,-2.061l-1.546,-3.092l0.515,-0l-0,-1.546c-0.515,-0.516 -1.546,-0.516 -1.546,-1.546l1.031,-1.031l-0,-0.515l-0.516,-0c-0.515,-1.031 1.031,-3.093 0,-4.123c0,-0.516 -1.031,-0 -0.515,-1.031c0.515,-2.061 0.515,-4.123 -0,-6.7c-0,-1.03 -0,-1.546 0.515,-2.576c0,-0.516 -1.031,-0.516 -1.031,-1.031c-0.515,-0.516 0,-1.031 -0.515,-1.546c-0.515,-0.516 -1.546,-0.516 -2.061,-1.031l-0,-1.031l-2.577,-2.061c-2.577,-1.546 -7.215,-1.031 -7.73,-3.608l0.515,0c1.546,-1.03 2.061,-2.061 3.092,-2.576Zm61.843,-2.062c1.031,0 2.061,0.516 3.092,1.031c3.092,1.031 6.7,0.515 9.792,1.031c0.515,-0 1.546,-0 1.546,-0.516l9.792,0c3.092,0.516 6.184,0.516 9.276,0c2.062,-0.515 5.154,1.031 7.215,0.516l1.546,-1.031l2.577,-0c2.062,-0.515 4.123,-0 6.7,-0.515c4.123,-1.031 17.007,-0 21.129,1.546c2.062,-0 3.608,0.515 5.669,0.515c1.546,0.515 3.093,2.061 4.639,2.577c1.546,0.515 3.607,0.515 4.638,1.03c0.515,0.516 1.031,1.547 1.546,2.062c1.031,0.515 2.577,1.031 3.092,2.061c0.515,1.031 0.515,1.546 1.031,2.062c0.515,-0.516 1.03,-0 1.546,-0c0.515,2.061 2.577,2.577 3.092,3.607l0.515,1.546l0,1.031l1.546,2.061l0,1.547l0.516,0.515c0.515,1.031 -0.516,3.092 -0.516,3.607l0,1.546c0,2.062 -0.515,4.123 -0.515,6.185c-0.515,1.03 -3.092,5.153 -4.123,5.669l-1.546,0.515c-1.031,1.031 -1.546,2.062 -2.577,3.092c-1.546,1.031 -3.607,1.031 -5.669,2.062l-1.03,0.515c-2.062,0.515 -5.154,0 -6.185,2.061l0,1.031c0.516,0.516 1.546,1.031 2.577,1.031l1.546,-0c0.516,-0 1.031,1.031 2.062,1.546c1.546,0.515 2.061,-0 3.607,1.031c1.546,1.03 2.577,3.092 4.123,3.607l1.546,0l0,1.546c1.031,1.546 3.092,2.577 4.638,3.092l0.516,2.062c3.092,-0.516 7.73,5.153 9.791,7.215c1.031,1.031 2.577,1.031 3.608,2.061c1.031,0 1.031,-0.515 2.061,-0.515c0,-1.031 -1.03,-1.031 -0.515,-2.062c0,-1.03 1.031,-1.546 0.515,-3.092c0,-0.515 -0.515,-2.061 -0.515,-3.092c0.515,-1.546 2.061,-2.061 2.577,-4.123c0.515,-1.03 -1.031,-4.123 -0,-6.699c0.515,-1.031 1.546,-1.546 1.546,-2.577c0.515,-2.062 -0.515,-3.092 -0,-5.669c0.515,-1.031 1.031,-1.546 1.031,-3.092c-0.516,-0.516 -3.093,-3.092 -3.608,-4.123c-0.515,-1.031 0,-1.546 -0.515,-2.062c-1.546,-2.061 -3.608,-3.607 -4.123,-6.699c1.546,-0 3.607,1.031 4.638,1.031l2.577,-0c1.546,0.515 2.061,1.03 3.607,1.546l0,-1.031c0.516,-0.515 0.516,-0.515 1.031,-0.515c0.515,0.515 0.515,0.515 1.546,0.515c0.516,-0.515 0.516,-0.515 0.516,-1.031c-0.516,-0.515 -1.031,-0.515 -1.031,-1.031c3.092,-2.576 4.638,-11.853 9.276,-12.883c0,1.03 0,1.03 1.031,1.546c0.515,-0.516 0,-1.031 0.515,-2.062c1.031,-1.546 3.093,-4.123 4.639,-5.153c3.607,-2.062 7.215,-3.608 10.307,-6.7l4.638,-0l-0,0.515l1.031,0l-0,-1.03c1.03,-0.516 2.061,-1.031 3.092,-1.546c2.577,-0.516 4.638,-0 6.699,-0.516c0.516,0 1.031,-1.031 2.577,-0.515c1.031,0.515 5.154,1.031 6.7,0.515c0.515,0 2.061,-0.515 3.092,-0.515c0.515,-0 1.031,0.515 2.577,0.515c6.699,-0.515 11.338,0 18.037,0c2.062,0 4.123,0.516 5.669,0l6.185,0c1.03,-0.515 1.03,-1.031 3.092,-1.031c-0,1.031 -0.516,1.031 -0.516,2.062c1.546,1.031 2.577,2.061 2.577,4.123c-0.515,0.515 -0.515,0.515 -1.546,0.515c-2.577,-2.061 -9.276,4.123 -9.792,6.184c1.031,2.062 -2.061,4.639 -1.546,7.215l0.516,0.516c0.515,1.03 -0.516,2.061 -0.516,2.577c-0.515,2.061 -0.515,5.668 -0.515,8.761c-0,1.03 -0,1.546 -0.515,2.576l-0,1.546c0.515,1.031 1.546,0 1.546,2.577c-1.031,0.516 -1.546,1.546 -2.062,3.092c1.546,1.031 0.516,4.123 0.516,5.669l0.515,1.031l-0,2.062l0.515,0.515l0,3.092c0.516,1.031 0.516,3.092 1.031,3.608l-0,3.092l0.515,1.03l0,0.516c0,-0 -0.515,0.515 -0.515,1.03c-0,0.516 0.515,0.516 0.515,1.547c-1.03,0.515 -1.03,1.03 -1.03,2.576c2.061,2.577 1.03,6.7 2.576,9.277c0.516,1.03 2.577,3.092 3.608,3.607c1.031,0.516 1.546,-0.515 2.577,0.516c0.515,0.515 1.03,1.546 1.03,2.576l1.031,0c0.515,-1.03 1.546,-2.061 3.608,-2.061l-0,0.515c-0,0.516 -1.546,4.123 -1.546,5.669c-5.154,0 -9.792,-0.515 -13.915,0l-2.062,0l-0.515,0.516c-0.515,-0 -1.031,-0.516 -2.061,-0.516c-1.031,0 -5.154,0.516 -6.185,0.516c-1.03,-0 -3.607,-0.516 -4.638,-0.516c-5.669,-0.515 -12.884,0.516 -18.037,0.516c-0.516,-0.516 -0.516,-0.516 -0.516,-2.062l0,-2.577c-0.515,-1.03 -1.546,-0.515 -1.546,-2.061c2.062,-0 4.123,0.515 5.669,-0.515c2.062,-1.031 7.215,-6.185 7.73,-8.246c0,-0.515 -0.515,-1.031 -0.515,-1.546c0.515,-0.516 0.515,-0 0.515,-1.031c-0.515,-0.515 -1.03,-1.031 -1.03,-2.061c1.03,-0.516 3.092,-1.031 3.607,-2.062c-1.546,-1.03 -3.092,-2.061 -3.092,-4.638c1.031,-1.031 2.062,-6.7 1.546,-9.276c-1.031,-0.516 -1.546,-1.031 -3.092,-0.516l-1.031,0c-1.03,-0.515 -1.546,-1.546 -2.576,-2.061l-2.577,-0c-1.546,-0.516 -4.123,-0 -5.669,-0.516c-5.154,-1.546 -11.853,-3.607 -17.522,-3.607c-0.516,1.031 -1.546,2.061 -2.062,3.607c-0.515,1.547 0.516,3.608 0,5.154c-0.515,1.031 -1.546,1.546 -2.061,2.577c-0,0.515 0.515,2.577 -0,3.607c-0.516,2.577 -1.546,5.154 -5.669,5.154l-0.515,-0l-0,1.031c1.03,-0 1.546,0.515 1.546,1.546c-1.031,0.515 -1.546,1.03 -1.546,2.576l-0,0.516l-1.547,1.031c-0.515,1.03 -0.515,2.061 -0.515,3.092c-0.515,2.061 -2.061,4.638 -3.607,5.669c-1.547,1.03 -3.608,1.03 -3.608,3.607l1.031,1.546l2.061,0c0.516,0 1.031,1.031 1.546,1.546c-0.515,0.516 -0.515,1.031 -0.515,2.062l1.031,-0c0.515,-0.516 1.03,-1.031 2.061,-1.546c2.062,1.546 6.7,2.061 7.215,5.153c-0.515,0.516 -1.031,1.031 0,2.062l1.031,-0c-0,-0.516 -0,-1.031 0.515,-1.546c0.516,-0 0.516,-0.516 1.031,-0.516l1.546,1.031c1.031,0.515 3.607,-0 4.638,-0c0.516,1.031 0,1.031 1.546,1.031c0.516,-1.031 0.516,-1.031 1.546,-1.031l8.246,-0c0.515,-0.515 1.031,-1.031 1.546,-1.546c0.515,0.515 0.515,0.515 1.546,0.515c0.516,-0.515 0.516,-1.031 1.546,-1.031c1.031,1.547 2.577,3.093 3.092,5.154c-5.153,3.092 -8.761,3.608 -15.976,5.154c-1.546,0.515 -4.638,1.03 -6.699,0.515l-1.031,-1.031c-0.515,0 -0.515,0.516 -1.031,0.516c-2.061,0.515 -5.153,-0.516 -6.699,-0.516l-0,-1.546c-3.093,0 -7.215,1.546 -10.823,0.516c-2.061,-0.516 -4.123,-2.062 -5.669,-2.577c-1.031,-0 -2.061,-0.516 -3.092,-0.516c-2.061,-0.515 -2.061,-2.061 -4.638,-2.576c-1.546,2.061 -5.154,2.576 -7.731,3.607c-6.184,2.062 -14.43,4.123 -22.675,2.577l-0,-2.061c1.03,-1.547 -0,-5.669 -0,-7.216l1.03,0c2.577,3.093 9.792,1.031 13.4,0c0.515,0 1.03,1.031 1.546,1.031c1.03,-1.031 5.153,-3.607 5.153,-4.638c-0.515,-0.515 -1.03,-1.031 -1.546,-1.546c-1.03,-0 -2.061,-0.515 -3.092,-0.515c-1.031,-0.516 -2.577,-1.031 -3.607,-2.062c-2.062,-1.546 -3.608,-3.607 -5.669,-5.153c-0.516,-0 -1.031,-0.516 -2.062,-0.516l-1.546,-1.546c-0.515,-0.515 -1.031,0 -1.546,-0.515c-0.515,-0.516 -0.515,-1.546 -1.031,-2.062c-2.576,-2.061 -5.153,-3.607 -7.73,-5.669l-1.031,-1.546l-1.03,0l-1.031,-1.546c-1.031,-1.03 -3.092,-1.546 -3.608,-3.092c-0.515,-1.031 -1.546,-2.577 -2.576,-3.092c-2.577,-2.061 -5.154,-3.092 -7.215,-5.154c-1.031,-1.03 -2.062,-2.061 -3.608,-3.607c-3.607,-2.577 -7.215,-5.154 -10.307,-7.215c-1.546,-1.031 -4.123,-0.515 -4.638,-2.577c1.03,-0.515 2.061,-1.546 3.092,-2.061l1.546,-0c1.546,-0.516 2.061,-2.577 3.092,-3.608l0.515,0c0.516,1.031 1.031,2.062 2.577,2.062c1.546,-1.547 2.062,0.515 4.123,-0c2.061,-0.516 5.154,1.03 7.73,0.515c1.031,-0.515 2.577,-1.546 3.608,-1.546c1.031,-0.516 1.546,-0 2.577,-0c1.03,-3.608 3.092,-2.062 3.607,-3.608c0.516,-1.03 0,-2.576 0.516,-4.123l1.03,-2.061c0,-1.031 -0.515,-1.031 -0.515,-2.061c0.515,-1.546 1.031,-3.608 1.031,-5.154l-2.577,-3.607c0.515,-0.516 0.515,-0.516 0.515,-1.031c-0.515,-0.516 -1.031,-1.031 -1.546,-1.546c-1.031,-0.516 -2.061,-1.031 -3.092,-1.546l-0.515,-1.546l-1.031,-0l-0.515,-0.516c-1.031,-0.515 -2.577,-0.515 -3.608,-1.03l-0.515,-1.031l-3.608,-0c-2.577,-0.516 -7.73,-1.031 -10.822,-0c-2.062,0.515 -3.608,2.577 -5.669,3.607c0.515,1.546 -0.516,0.516 -1.031,1.546l0,1.546c0,1.031 -1.031,1.547 -1.031,2.577l0,1.031l-1.03,0.515l-0,1.546l-1.031,0.516c-0.515,1.546 1.031,6.699 1.031,6.699c-0.516,1.031 -1.031,1.031 -1.031,2.577c0.515,0.516 1.031,1.031 1.546,1.546c-0.515,1.546 -0,3.608 -0.515,5.154l-1.031,0.515l-0,0.516c0.515,1.03 0.515,1.03 0.515,3.092c-1.546,1.546 0,3.092 0,5.669c0,5.153 0,11.338 1.031,15.46l-1.546,1.546c0.515,1.547 2.061,2.062 2.061,4.123l-1.03,1.031l1.03,4.123c0.516,1.031 0,2.061 0,2.577l3.608,2.061l-0.516,1.031l2.577,-0c-1.03,0.515 0,1.031 1.031,1.546c1.031,-1.031 4.123,-0.515 5.669,-0.515c-0,1.03 -1.031,5.153 -2.062,5.668c-1.546,1.031 -4.122,0 -6.184,0c-2.061,0.516 -4.123,0 -5.669,0c-1.03,0 -2.061,0.516 -3.092,0.516c-2.061,-0.516 -5.153,-0.516 -7.73,-0.516c-0.516,0.516 -0,0.516 -1.031,1.031c-1.546,-2.061 -5.154,-0.515 -8.246,-1.031c-2.061,-0.515 -6.184,-0.515 -8.761,0c-1.031,0 -1.546,-0.515 -2.061,-0.515c-2.062,-0.515 -4.123,0 -5.669,0c-0.516,-0.515 -0.516,-0.515 -0.516,-1.031c0.516,-0.515 0.516,-2.576 0.516,-3.092c-0.516,-0.515 -1.031,-1.03 -1.031,-2.061l0.515,-0c1.031,0.515 5.669,-0.516 6.7,-0.516c0.515,-1.546 2.062,-2.576 3.608,-3.607c-0,-2.061 0.515,-4.638 1.03,-6.7l0,-3.607l1.031,-1.546c0,-0.516 -0.515,-1.031 0,-1.031c0.515,-2.577 1.031,-5.154 1.031,-8.246c1.031,-0.515 1.031,-1.03 2.061,-1.03c2.062,-1.546 5.669,0.515 6.7,-2.577c-0.515,-0 -0.515,-0.516 -1.031,-0.516c-1.546,-1.03 -4.638,0 -6.184,-0.515c-1.031,-0.515 -2.062,-1.031 -2.062,-2.061c-1.03,-1.546 0,-4.123 -0.515,-6.185l-0.515,-1.546l0.515,-1.03c0.515,-1.547 -0.515,-3.093 0,-4.639c0,-0.515 1.031,-1.546 0.515,-3.092c-0.515,-1.031 -1.546,-2.061 -1.546,-3.092c-0.515,-1.031 0.516,-2.061 0.516,-3.092l-1.031,-1.031c-0,-0.515 1.031,-1.546 1.031,-2.061c0.515,-1.546 -0.516,-10.307 -0.516,-10.307l-1.03,-0.516l-0.516,-2.577c-0.515,-0.515 -1.546,-1.546 -2.061,-1.546l-3.092,0l-4.639,-2.061l0,-1.031c-4.122,2.577 -3.092,0.516 -3.607,-1.546Zm148.938,35.56c1.546,1.031 6.185,0.515 8.246,1.546c-0.515,1.031 -0.515,1.031 -0.515,1.546l-0,0.515l0.515,0l0.515,-2.061l1.547,-0c1.546,1.031 3.607,-0 5.153,0.515c0.515,0 1.031,1.546 1.546,1.546c0.516,0 0.516,-0.515 1.546,-0.515l1.546,0.515c2.577,0.516 4.639,-0.515 5.669,1.546l0,0.516l1.031,-0c0.515,-1.546 1.546,-2.577 1.546,-4.638c-2.061,-1.547 -1.031,-1.031 -1.546,-3.608l-0.515,-1.031c-0,-0.515 1.03,-2.061 1.03,-2.576c0,-2.062 0,-3.608 0.516,-5.669c-0.516,-1.546 -1.546,-2.577 -1.546,-4.123c-0.516,-2.062 1.03,-3.608 0.515,-5.669c-3.608,-2.062 -7.215,-0 -10.307,1.546c-3.092,1.546 -6.7,2.577 -8.761,5.153l-2.577,4.639c-0.515,0.515 -1.031,1.03 -2.061,1.546c-0.516,1.03 -0.516,2.577 -1.031,3.607c-1.031,1.546 -2.577,2.577 -3.092,5.154l1.03,-0Zm70.089,-18.553l0,-1.546c0,-1.546 1.031,-3.608 0.515,-4.638l-0.515,-1.031c0,-1.031 1.031,-3.092 1.546,-3.608c0.515,-1.03 -0.515,-3.607 0,-4.122c1.031,-0 1.031,-0 2.062,-0.516l5.668,0c0.516,0 1.031,-0.515 1.547,-0.515c3.092,1.031 8.245,0.515 12.368,1.031c1.546,-0 2.577,-0.516 4.123,-0.516c3.092,0.516 8.246,0.516 12.369,0.516l3.607,-0c2.062,0.515 4.638,0.515 6.7,-0l0.515,0.515c1.031,-0 2.577,-0 3.608,-0.515c2.061,0.515 5.669,0.515 8.245,-0c3.608,-1.031 6.7,0.515 8.761,-0c4.123,-1.031 8.761,1.03 11.338,0.515c2.062,-0.515 3.092,-1.031 5.154,-0.515c-2.577,5.153 -0.516,9.276 1.031,13.914l-0,2.062c1.03,4.638 -0,6.184 4.122,8.761c-0.515,0.515 -5.669,4.123 -6.184,4.123c-0.515,-1.031 -1.031,-3.093 -2.061,-4.123l-1.546,-0.516c-1.031,-0.515 -2.577,-2.576 -3.608,-3.607c-1.546,-2.062 -2.577,-4.123 -4.638,-5.669c-1.546,-1.031 -3.608,-1.546 -5.669,-2.061c-0.515,-0.516 -0,-1.031 -1.031,-1.547c-0.515,-0.515 -1.546,-0.515 -2.577,-0.515c-3.092,-1.031 -5.668,-3.092 -10.307,-2.061l0,1.03c0.516,0.516 1.031,0.516 1.031,1.546c-0.515,0.516 -2.061,4.639 -2.577,5.669l1.546,2.577l-1.03,0.516l-0,1.546c-0.516,1.03 -2.062,1.546 -1.546,3.092l0.515,0.515c1.031,0 1.546,-0.515 2.577,0c-0.516,1.031 -1.031,2.062 -2.062,2.577c0,1.031 0.516,1.546 0,2.577c0.516,0.515 1.031,0.515 1.031,1.546c-1.031,-0 -1.031,0.515 -1.031,1.546c1.031,1.031 2.062,2.061 2.062,3.607c-0.516,0.516 -1.546,3.608 -1.546,4.123c1.546,1.031 -0,2.062 0.515,4.638c0.515,3.093 -0,10.308 -0.515,13.4c1.03,0.515 1.546,1.546 1.546,3.092c-0.516,0.515 -1.546,3.092 -1.031,4.123l1.031,0.515c0.515,0.515 -0.516,2.062 -0,3.092c0.515,1.031 1.03,1.031 1.546,1.546c0.515,1.546 -0,3.608 -0,4.123c-0,0.516 1.03,1.546 1.03,2.577l1.031,-0l0,1.031l0.516,-0c1.03,0.515 7.215,1.546 8.761,1.03c-0.516,2.062 -1.031,3.608 -2.062,5.669c-3.092,1.031 -8.246,0.516 -11.853,0c-1.546,-1.03 -6.184,0.516 -9.276,0c-7.731,-1.546 -17.523,0 -26.284,0c0,-3.092 -1.03,-3.607 -1.546,-6.184c3.608,0 8.761,-1.031 9.792,-3.092l-0,-1.031l1.031,0c0.515,-0.515 1.546,-2.061 1.546,-3.092c-0.516,-1.031 0.515,-1.546 -0,-2.061l-0.516,-1.546l0.516,-0.516l-0,-3.092l1.031,-1.546c-0,-1.031 -1.031,-1.546 -1.031,-2.577c1.546,-1.031 0.515,-5.153 1.031,-7.215c-0,-1.031 -0.516,-1.031 -0.516,-1.546c0,-0.515 0.516,-1.031 0.516,-2.061l-0.516,-0.516c0,-0.515 0.516,-1.546 0,-2.061l-0.515,-0c-0.516,-1.031 1.546,-2.577 1.031,-4.123c-0,0 -1.031,-1.546 -0.516,-2.577c0,-0.515 1.031,-0.515 0.516,-1.546c-0.516,-1.031 -1.031,-1.546 -1.547,-3.092c0.516,-0.515 1.031,-1.031 1.547,-2.061c-1.547,-1.031 -0,-3.608 0.515,-4.639c-1.546,-0.515 -0.515,-2.061 -1.031,-3.092c0,-0.515 -1.031,0 -1.031,-1.546c0.516,-0.515 1.031,-1.031 1.031,-2.061c0,-1.031 -1.546,-3.608 -2.061,-5.669c-0,-1.031 1.03,-2.062 1.03,-2.577c0.516,-1.031 -0.515,-4.123 -0.515,-5.154c-1.546,0 -6.184,-1.03 -8.246,0l-1.03,1.031c-1.546,0.515 -3.093,0.515 -4.123,1.031c-1.031,1.031 -2.577,2.577 -3.608,3.607c-1.546,1.031 -4.123,2.062 -5.153,3.608l-0.516,1.546l-1.03,1.031l-0,0.515c-0.516,1.031 -2.577,2.061 -3.608,3.092c-0.515,0.515 0,1.031 0,2.062l-1.031,1.546l-0.515,-0c-1.031,-1.546 -3.607,-3.093 -5.669,-3.608c3.092,-3.607 4.638,-7.215 5.669,-10.307Zm98.433,-15.976c1.031,1.031 3.608,0.515 5.154,0.515c-0,0.516 0.515,1.546 0.515,2.062l1.031,-1.546c2.577,0.515 6.7,-0 9.792,-0c0.515,-0 1.546,-0 2.061,0.515c1.546,-0.515 4.638,-1.031 6.7,-0.515c3.607,0.515 8.246,-0 12.884,-0l5.669,-0c5.153,1.03 11.853,1.03 17.007,-0c1.546,-0.516 3.607,0.515 5.153,-0c3.092,-0.516 7.215,-0 10.307,-0c1.546,-0 2.062,-1.031 3.608,-1.031l-0,0.515c-0.516,0.516 -1.546,2.062 -1.031,3.608l0.515,0.515c0.516,1.031 -0.515,5.154 0,6.7c0.516,2.577 2.062,6.184 2.577,8.245l-0.515,0.516c1.031,3.092 4.123,3.607 5.153,6.699c-1.03,1.031 -3.092,1.031 -4.638,2.062c-1.03,0.515 -1.03,1.546 -2.061,2.061c-5.669,-6.184 -11.338,-14.43 -20.614,-17.522c-1.031,-0.515 -2.062,-1.546 -3.093,-2.061l-2.061,-0c-0.515,-0 -1.546,-1.031 -2.577,-1.031c-1.546,-0.515 -3.092,0 -4.123,0c-1.546,0 -2.577,-0.515 -3.607,-0.515c-2.062,-0 -4.123,0.515 -6.185,0.515c-0.515,0.515 -0.515,1.031 -0.515,2.061c1.031,1.031 -1.546,4.123 -0.515,6.7l0.515,0.515c0,0.516 -1.031,3.093 -1.031,4.123c0,1.546 0,3.092 0.516,4.639c-0.516,1.546 -0.516,3.092 -0.516,4.638l0,1.546c-0.515,1.546 -0.515,2.577 -0.515,4.638l0.515,0c1.546,0 2.577,-0.515 4.123,-0.515c2.577,-0.516 5.669,0.515 8.246,0.515c4.123,0 6.7,-0.515 10.823,-0.515c1.03,-1.546 3.092,-3.092 3.607,-5.154c0.515,-1.546 -1.031,-3.092 0,-3.607c1.546,1.546 5.154,-0 7.215,-0c-0.515,2.576 -0.515,6.699 -0.515,10.307c-0,0.515 -0.516,1.031 -0,2.061l1.03,1.546c0.516,2.062 -1.03,4.639 -0.515,7.215c0.515,2.062 1.031,4.639 1.031,6.7c-2.577,-0 -6.7,0.515 -7.731,-0c-0.515,-0.515 0,-1.546 -0.515,-3.092c-0.515,-2.577 -2.061,-5.154 -5.669,-5.154c-1.546,-1.03 -4.638,0 -6.7,-0.515c-2.061,-0.515 -4.638,-0 -7.215,-0.515c-2.061,-0.516 -4.638,-1.031 -6.699,-0.516c-0.516,0.516 -0.516,0.516 -0.516,1.546c0,0 1.031,6.7 0.516,8.246c1.03,0.515 1.03,0.515 1.03,1.031c-1.03,-0 -2.061,-0 -2.576,1.03c0.515,0.516 -0,2.062 0.515,3.093c0.515,0.515 1.546,2.061 1.546,2.576c0,0.516 -0.515,0.516 -0.515,1.031l0.515,1.546l-0.515,0.515c-0,1.031 1.03,2.062 1.546,2.577c-0,0.516 -0.516,1.031 -0.516,2.577l-1.546,0l0,1.031c2.062,0.515 2.062,2.061 4.123,2.061c0.516,-0.515 2.062,-0.515 3.092,0l1.031,1.031c1.031,0.515 4.123,-0 5.669,-0.515c1.546,-0 3.608,0.515 5.154,0.515l-0,1.031c-0.516,0.515 -0.516,0.515 -1.031,1.03l1.031,0c1.546,-4.123 14.43,-1.546 17.522,-1.03c2.061,-3.608 6.184,-1.546 10.307,-2.062c2.061,-0.515 3.607,-1.546 5.154,-2.061c1.03,-0.516 2.576,0.515 2.576,0.515c1.031,-0.515 4.123,-3.607 4.639,-4.638c0.515,-0.515 -0,-1.031 0.515,-1.546l4.638,-4.123l1.031,-0l1.546,-1.546l1.031,-0c1.03,-0.515 2.061,-1.546 3.607,-2.062l2.577,0c1.031,0 2.061,-1.03 2.577,-1.03c0.515,-0 1.546,0.515 2.061,0.515c1.031,0 2.062,-1.031 3.608,-0.515c0.515,0.515 0.515,0.515 0.515,2.061c-1.546,2.062 0,6.184 -1.031,8.761c0,1.031 -0.515,1.546 -1.03,2.577c-0.516,0 -1.031,0.515 -1.546,0.515c-0.516,0 -1.031,-0.515 -2.062,0l-2.061,1.031c-1.031,0 -1.546,-0.515 -2.577,-0.515c-0.515,1.03 -2.062,1.03 -2.577,2.061l0,1.546c0,0.516 -2.061,3.608 -3.092,3.608c0.515,0.515 1.546,1.546 2.061,2.061c0.516,1.546 0,3.092 0.516,3.608l1.03,0.515c1.031,0.515 1.547,2.061 2.062,3.092l1.031,0.516l0.515,2.061c0.515,-0 0.515,0.515 1.546,0.515c0.515,-1.03 0,-1.546 2.061,-1.546c1.547,1.546 5.669,1.546 8.246,2.577c5.669,1.546 8.761,1.031 13.915,0c1.031,-0.515 3.607,0.515 5.153,0c2.062,-0.515 3.608,-3.092 5.154,-3.607c1.546,-1.031 4.123,-1.547 5.669,-3.093c0.515,-0.515 0.515,-2.061 1.031,-3.092l1.546,-1.03c1.03,-1.547 -0,-3.093 -0,-4.639c-0,-1.03 1.03,-1.546 0.515,-2.576l-0.515,-0.516l0.515,-5.153c-0.515,-0.516 -1.031,-1.031 -1.546,-1.546c-0.515,-0.516 -2.061,-0 -2.577,-1.031c-1.031,-1.031 -1.546,-2.577 -2.577,-3.608c-1.03,-0.515 -1.546,-0.515 -2.576,-1.03l-1.031,-1.546l-1.031,-0c-2.061,-1.031 -4.123,-3.093 -6.699,-3.608c-1.547,0 -2.577,-0.515 -3.608,-0.515l-1.031,-1.031c-1.546,-1.031 -4.638,-2.061 -6.184,-2.577c-1.031,-0.515 -2.061,0 -3.607,-0.515c-1.031,-0.516 -3.093,-1.031 -4.123,-1.546c-3.608,-1.546 -11.854,-3.608 -12.369,-7.215l0.515,-0.516c-6.184,0 -6.184,-2.061 -8.245,-6.184c-0.516,-1.031 -1.546,-2.061 -2.062,-3.092c-0.515,-1.031 0.516,-3.092 0,-3.608l-1.03,-1.03c-0.516,-0.516 -0,-2.062 -0,-3.092c-0.516,-2.062 0.515,-3.608 0.515,-5.154l-0,-1.031l1.546,-1.03l-0,-2.062l1.031,-1.546l-0,-1.546l1.546,-1.546l-0,-1.546c0.515,-0.516 1.03,-1.031 2.061,-1.031c0.516,-0.515 0.516,-1.546 1.031,-2.061c0.515,-0.516 2.061,-0.516 2.577,-1.031l0.515,-1.546c1.031,-0.515 2.062,-0.515 3.092,-1.031c1.546,-1.031 3.608,-2.577 5.669,-3.607c1.546,-0.516 2.577,-0 4.638,-0.516c2.577,-0.515 6.7,-2.061 9.277,-1.546c1.546,0 1.546,-1.03 2.577,-0.515l1.03,1.031c0.516,-0 1.546,-0 2.062,0.515c-0.516,0.515 -1.031,0.515 -2.062,-0l0,0.515c1.031,0.516 2.062,1.031 2.577,0.516c0.515,-0.516 0.515,-1.546 0.515,-2.577c1.547,-0 1.547,-0.515 3.608,-0.515c0.515,1.03 2.061,1.546 3.607,1.546c0.516,-0.516 0.516,-0.516 0.516,-1.031c3.607,-0 7.73,1.546 11.338,1.031l2.061,-0.516l2.062,0l0.515,-0.515c1.031,-0 3.092,1.031 4.638,0.515c1.031,-0.515 1.031,-1.03 2.062,-1.03c-0,1.546 -0.516,1.546 -1.031,2.061c-0.515,1.546 0.515,3.607 1.031,4.638c-0,1.031 -0.516,2.062 -0.516,3.092c0,0.516 1.031,1.546 1.546,2.577c0.516,1.031 0.516,2.577 0.516,3.092c0.515,1.546 -0.516,4.638 -0,5.669c1.03,2.062 4.123,2.577 4.123,5.154c-1.547,1.03 -3.608,1.03 -5.154,2.577c-0.515,0.515 -0.515,1.546 -1.546,2.061c-1.031,-1.546 -2.062,-4.123 -3.092,-5.669c-1.546,-2.061 -4.639,-2.577 -6.185,-4.123l-0.515,-1.031l-1.031,-0.515c-1.03,-0.515 -1.546,-2.061 -2.576,-2.577c-2.062,-1.546 -6.7,-2.576 -9.277,-3.092c-1.031,0 -1.031,0.516 -1.546,0.516c-1.546,-0 -1.031,-1.031 -3.607,-0l-1.031,-1.031l-6.7,-0c-0.515,-0 -0.515,1.031 -1.031,1.546c-1.546,0.515 -2.061,-1.031 -3.092,-0.515c-2.061,0.515 -8.245,4.638 -8.245,6.699c0.515,1.031 -1.031,2.062 -0.516,3.092l1.031,1.031l-0,1.546l0.515,0c0,1.031 -1.03,1.546 -0.515,2.062c0.515,0.515 1.546,-0 2.577,0.515c1.546,0.515 2.577,2.577 4.123,3.092c1.03,0.515 2.061,0.515 3.092,1.031l1.03,1.03l1.031,0c1.031,1.031 -0.515,1.547 2.062,1.547c2.576,-2.062 5.153,1.546 7.215,1.546c1.03,-0 6.184,1.546 7.215,2.576l1.03,1.031l3.092,0c1.547,0.516 2.577,2.062 3.608,2.577c3.092,1.546 6.7,2.577 9.792,4.638c1.031,1.031 2.577,2.577 3.607,4.123c0.516,1.031 0.516,2.577 1.546,3.092l0.516,0c0.515,1.546 1.546,2.062 2.061,3.608l0,0.515c1.546,0.515 3.608,1.546 3.608,3.092l-0,2.062c1.03,1.03 2.061,2.061 3.092,3.092c-0,1.546 -0.516,1.546 -0.516,2.577c1.031,0.515 1.547,1.03 1.547,2.576c-0.516,0.516 -1.547,7.215 -1.547,7.731c0,1.03 1.031,1.546 1.031,3.092c-1.031,0.515 -2.061,2.577 -2.577,3.607l0.516,1.031c-0.516,1.031 -1.031,1.546 -2.577,2.061l-0,3.093c-0.515,0.515 -1.031,1.03 -1.546,1.546c-1.031,0.515 -1.546,1.03 -2.577,1.546l-2.061,2.061c-1.546,1.031 -3.608,1.546 -5.154,3.092c-1.031,1.031 -3.092,2.577 -4.123,3.093l-1.546,-0c-1.546,0.515 -4.123,2.061 -5.669,2.576c-2.061,0.516 -3.092,0 -5.153,0.516c-9.277,3.092 -21.645,3.092 -30.406,-0l-3.093,-0c-1.546,-0.516 -2.576,-2.062 -4.122,-2.577c-1.547,-0.515 -2.577,-0.515 -3.608,-1.031c-2.061,-1.031 -3.608,-2.577 -5.154,-3.607c-0.515,-0.516 -1.546,-0.516 -2.061,-1.031c-1.546,-2.061 -3.092,-4.123 -4.123,-6.184c-0.515,-0.516 -0.515,-2.577 -1.031,-2.577l-1.546,-0c-1.546,-1.031 -4.638,-0 -6.699,-0l-12.884,-0c-1.031,-0 -7.731,1.031 -8.246,0.515c-1.546,-0.515 -4.123,0 -6.184,-0.515c-0.516,-0 -1.546,0.515 -2.062,-0c-3.607,-1.031 -9.792,-1.031 -13.914,-0c-0.516,-0 -1.546,-0.516 -2.062,-0c-3.092,0.515 -7.73,-0.516 -11.338,-0c-1.546,-0 -4.123,1.031 -6.699,-0l-1.546,-0.516c-1.546,0 -6.185,1.031 -7.215,0.516c-0.516,-0 -1.031,-0.516 -1.546,-0.516c-2.577,0 -5.669,0.516 -8.762,0l-1.546,-1.546l0,-2.576c0,-0.516 -1.03,-0.516 -1.03,-1.546l0.515,-0c1.031,-0.516 2.061,-0 3.608,-0.516c3.092,-1.031 9.276,-2.061 9.791,-5.669l0,-3.607c0,-0 -0.515,-0 -0.515,-0.516l1.031,-1.546c0.515,-1.546 -0.516,-2.576 -0,-3.607c-0,-0.516 0.515,-0.516 1.03,-1.031c-0.515,-0.515 -1.546,-2.061 -1.546,-3.607c0,-0.516 0.516,-0.516 0.516,-1.546c-0,-0.516 -0.516,-1.547 -0.516,-2.577c0,-0.516 1.031,-1.031 1.031,-1.546c0,-0 -1.546,-3.608 -1.031,-4.123l0.516,-1.031l-0.516,-0.515c0,-1.031 0.516,-4.123 0,-6.185l-1.03,-1.03c-0,-0.516 1.03,-2.062 1.03,-2.577c0,-0.515 -0.515,-1.546 -0.515,-3.092l0.515,-1.031c1.546,0 7.215,-0.515 8.246,-1.546l0,-0.515c-3.092,-1.031 -6.184,-0.516 -10.307,-0.516c-0,-1.546 0.515,-1.546 1.031,-2.577c0.515,-1.546 -0,-3.092 0.515,-4.122c-0,-1.546 -0.515,-3.093 -1.031,-4.123c0.516,-3.092 -1.03,-6.7 -2.061,-9.277c0.515,-0.515 0.515,-0.515 1.031,-1.03c-1.031,-0.516 -1.031,-1.031 -2.062,-1.546c-1.031,-0.516 -2.061,-1.031 -3.607,-1.547l-1.546,-1.546c-1.547,-0.515 -3.608,-0.515 -4.639,-1.03l0,-0.516c-1.03,-5.669 0,-9.276 1.546,-9.276Zm193.775,60.297c1.031,-0 2.577,-1.031 4.123,-0.516c1.03,0.516 1.546,1.546 2.061,1.546c0,0 5.154,-0.515 5.669,0c0.515,-0.515 0.515,-0.515 0.515,-1.03c-1.03,-1.031 0,-3.608 0.516,-5.154l-1.546,-1.031c-1.031,-0.515 -3.092,0.516 -3.608,0l0,-0.515c1.031,-1.546 2.577,-1.031 4.123,-1.546c3.092,-1.031 11.853,-2.061 14.945,-1.031l0.516,1.031c-2.062,1.546 -3.092,4.123 -4.638,6.184l-1.031,0.516l-0,2.061c-1.031,1.546 -2.062,0 -2.062,3.608c1.547,-0 2.577,1.03 5.154,0.515c1.031,-0 3.092,-1.031 3.608,-1.031c1.03,0 1.03,0.516 1.546,1.546c-1.031,0.516 -1.546,1.546 -2.577,1.546l-2.577,0l-1.031,0.516c-1.03,-0 -1.546,-0.516 -2.061,-0.516c-2.062,-0.515 -4.638,1.031 -5.154,2.577c-0.515,1.031 -0.515,2.062 -1.03,3.092l-1.031,1.546l-0,2.062c-0.515,0.515 -1.546,1.546 -1.546,2.577c-0.516,1.03 -0.516,2.576 -1.546,3.607c-1.031,1.546 -2.062,0.515 -2.062,3.608c1.546,-0 1.031,1.03 3.092,1.03c0.516,-0.515 4.639,-2.061 5.669,-1.546c1.031,0.516 1.031,0.516 2.062,1.031l-0,0.515c-1.546,0.516 -1.031,0 -2.577,0c-2.577,3.608 -10.307,3.092 -14.945,2.062c-2.062,-4.638 -0,-6.7 1.546,-10.307c-0,-0.516 -0,-3.093 0.515,-3.608l1.546,-1.031l0,-1.546c0.516,-1.03 2.062,-3.092 1.546,-4.638c0.516,-1.031 1.546,-1.546 1.546,-2.577c-0.515,-0.515 -1.03,-0.515 -2.061,-0.515c-1.546,0.515 -3.092,-1.031 -5.154,-0.515c-1.546,-0 -3.607,-0.516 -5.153,-0c-1.546,0.515 -3.092,1.03 -4.638,1.546c-0.516,-1.031 -1.031,-1.031 -1.031,-2.577c1.546,-0.515 4.123,-2.577 5.669,-3.092c0.515,-0.516 1.546,-0 3.092,-0Zm22.16,26.283c0.516,-0.515 1.546,-0 2.062,-0.515l-0,-1.031c-0.516,-0.515 -0.516,-1.031 -0.516,-1.546c3.092,-1.546 1.546,-4.638 3.608,-6.184c0.515,-0.516 1.546,-0.516 2.061,-1.031c-0.515,-1.546 1.031,-4.123 2.062,-6.184c1.03,-2.062 2.577,-4.639 3.092,-6.7l-0,-2.062c0.515,-1.546 2.577,-3.607 3.092,-5.153c-0.515,-0.515 -0.515,-0.515 -1.031,-1.031c-1.03,-0.515 -3.607,-0.515 -5.153,-0.515l-0,-0.516c1.546,-0.515 3.607,-1.546 4.638,-2.061l7.73,0c2.577,-0.515 5.154,-1.031 7.731,-0.515l-0,0.515c-4.639,3.092 -5.154,8.761 -8.246,13.399c-1.546,2.062 -4.123,3.092 -3.608,6.7l2.062,-0c0.515,-1.031 0.515,-2.061 1.546,-2.061c1.031,-0.516 1.546,1.03 2.061,0.515c1.546,-0.515 2.062,-2.062 3.093,-3.092c1.03,-0.516 2.061,-0 2.576,-0c3.092,-0 9.792,-1.031 9.792,3.607c0.515,0.516 0.515,0 0.515,1.031c-1.03,1.031 -1.03,3.092 -2.576,4.123c-0.516,0.515 -2.062,-0 -2.577,0.515l-0.515,0.516c0.515,1.03 1.03,1.03 1.546,2.061c-1.546,1.546 -3.093,4.638 -3.093,7.215c1.031,0.515 2.577,2.061 4.639,1.031c0.515,-0 2.576,-2.062 3.092,-1.546c0.515,0.515 1.546,1.546 1.546,2.576l-0.515,0c-1.031,0.516 -2.062,0.516 -3.608,1.031c-3.607,1.546 -7.215,3.092 -11.338,1.031c-1.031,-0.516 -2.577,-0.516 -3.092,-1.546l0,-3.092c0.515,-1.031 1.031,-3.608 1.546,-5.154l1.031,0c-0,-2.577 4.123,-8.761 1.546,-9.792c-2.062,-1.03 -5.154,1.546 -6.184,2.062c-1.031,0.515 -6.185,3.607 -6.7,4.123c-1.031,1.546 -1.031,3.607 -2.061,5.668c-0.516,1.031 -2.062,2.062 -2.577,2.577l-0,1.031c-0,2.061 -0.516,2.577 -1.546,3.607c-3.608,-0.515 -7.215,0 -10.823,0l0,-0.515c2.062,-1.546 2.062,-2.577 3.092,-3.092Zm46.382,-13.399l1.031,-0.516l0,-1.03c1.546,-3.093 5.669,-4.639 9.277,-5.669c2.061,-0.516 8.761,-0 9.791,-0.516l1.547,0l0.515,1.031c1.031,-0.515 1.031,-0.515 1.546,-0.515c1.546,0.515 5.669,2.061 5.669,4.123c-0.515,0.515 0.515,1.03 -0,1.546c-0,0.515 -2.577,4.638 -3.092,5.153c-5.154,4.123 -13.915,2.577 -21.13,4.638c0,2.062 -0.515,3.093 0,4.639c0.515,0.515 1.546,1.03 2.577,1.546c4.638,1.546 7.73,-2.577 10.307,-3.092c0.515,1.546 1.546,1.546 2.061,3.092c-7.215,7.73 -29.89,1.546 -23.706,-10.307l3.607,-4.123Zm9.792,3.607c0.516,0.516 1.546,0.516 2.577,0c0.515,-0.515 1.546,0 2.577,-0.515c1.031,-0.516 6.184,-2.577 6.7,-3.092l-2.062,-0c0.515,-1.546 1.031,-1.031 1.031,-3.092c-0.516,-0.516 -1.031,-0.516 -2.062,-0.516c-0.515,0 -1.03,0.516 -2.061,0.516c-0.515,0.515 -1.031,1.546 -1.546,2.061c-0.516,-0 -1.546,0.515 -2.062,0.515c-0.515,0.516 -1.03,1.031 -1.03,1.546c-1.031,1.031 -2.577,2.062 -2.062,2.577Zm19.584,-68.027l-2.062,-0c-1.03,0.515 -2.576,0.515 -3.607,1.031c-3.092,2.061 -3.092,7.215 -4.638,10.822c-0.516,0.516 -1.031,1.031 -1.031,2.062c1.031,-0 1.031,0.515 2.061,0.515c1.031,-1.031 3.608,-1.546 5.669,-1.546l0,0.515c-1.03,1.031 -1.03,2.577 -1.546,3.608c-0.515,0.515 -1.546,0.515 -2.061,-0c-1.546,-1.031 -5.154,-1.031 -5.669,0.515c-1.031,1.546 -1.546,5.669 -2.062,7.73l0,1.031c-0.515,0.516 -1.03,1.031 -2.061,1.546l0,1.031l-1.031,0.515c0,0.516 0.516,2.577 0,3.093c-0.515,1.546 -4.123,4.638 -5.669,5.668c-1.03,0.516 -1.546,2.062 -2.061,2.577c-3.608,2.577 -8.761,3.608 -14.43,3.608c-0.515,-0.516 -0.515,-1.031 -0.515,-2.062c-0.516,-0.515 -0.516,-2.061 -0.516,-3.092l1.031,0c1.031,1.031 3.092,0.516 4.123,0.516l0.515,0.515l0,1.031l0.516,-0c1.03,-2.577 4.638,-3.093 5.153,-5.154c-0.515,-0.515 -0.515,0 -0.515,-1.031c2.577,-1.546 0.515,-1.03 1.546,-3.092c0.515,-0.515 1.546,-1.546 2.061,-2.577c0.516,-1.546 0,-2.576 0.516,-4.123c0.515,-1.546 1.546,-2.576 2.061,-4.122c0.515,-1.031 -1.031,-1.546 -0.515,-2.577c-0,-0.516 1.03,-1.031 1.03,-2.062l-0.515,0c-2.061,-1.03 -5.154,0.516 -6.7,0l0,-1.03c1.031,-1.031 0.516,-2.062 3.093,-2.062c2.061,1.546 8.245,0 8.245,-2.577c-1.03,0 -0.515,0 -1.03,-1.03c1.03,-1.031 1.03,-2.577 2.061,-3.608c1.031,-1.546 2.577,-2.577 3.607,-3.607c1.031,-1.546 1.031,-2.577 2.062,-3.608c1.546,-1.03 6.184,-2.577 8.246,-3.092c0.515,0.515 0.515,1.031 1.03,1.031c0.516,-1.031 1.546,-1.031 3.608,-1.031l-0,1.546l0.515,0.516c1.546,-1.031 1.031,-1.547 3.608,-1.547l0.515,0.516c-1.546,3.607 -2.577,8.246 -3.607,12.368l-0.516,0l0,-0.515c1.546,-1.546 1.031,-8.246 -0.515,-8.761Zm22.676,9.276c1.03,-1.03 1.03,-2.576 2.061,-3.607l1.546,-1.031l0,-1.031l1.031,0l-0,-1.546l1.031,-1.03l-0,-2.577l1.03,-0.515l0,-1.031c0.516,-0.516 1.031,-1.546 1.546,-2.062c0.516,-1.03 0.516,-2.576 1.031,-3.607l1.546,-1.546c0.515,-1.031 1.031,-2.577 1.546,-3.608c0.516,-1.03 1.546,-1.546 2.577,-2.576l0.515,-1.547l2.062,-1.546c0.515,-0.515 -0,-2.061 0.515,-3.092c1.031,-1.03 1.546,-0.515 2.062,-2.061c-0.516,-0.516 -0.516,-1.031 -0,-2.062c0.515,-0.515 0.515,-0.515 1.03,-1.03l1.031,-0c4.123,-4.123 7.215,-8.761 11.853,-12.369c1.546,-1.031 2.577,-3.092 4.638,-3.607c0.516,-0 1.031,0.515 1.547,-0l-0,-1.031c1.03,-2.062 5.153,-3.092 7.215,-4.638c0.515,-0.516 1.03,-1.031 1.546,-1.031l1.546,-0c0.515,-0.515 2.061,-1.546 2.576,-1.546l1.031,-0l1.031,-1.031l2.061,0l0.516,-1.546l1.546,0c0.515,0 1.546,-1.546 2.061,-1.546l1.546,-0l1.031,-1.031c2.061,-0.515 4.123,0 6.184,-0.515c0.516,-0 2.062,-1.031 2.577,-1.031c1.031,-0.515 2.577,0.516 3.608,0c2.061,-0.515 5.153,-1.031 7.215,-1.546c1.546,-0.515 5.669,1.031 5.669,1.031l-0,-1.031l2.061,0c0.515,1.031 0.515,1.031 1.546,1.031c0.515,-1.031 4.123,-1.546 6.184,-1.031c1.031,0 1.546,-0.515 2.577,0c1.031,0 3.092,0.515 3.608,0.515l5.669,0c1.03,0 2.576,0.516 3.607,0.516c0.515,-0 1.031,-0.516 1.546,-0c3.608,1.031 6.184,1.031 10.307,-0c1.031,-0 3.608,0.515 5.154,0.515c0.515,0 2.577,-1.031 3.607,-1.031c0.516,0 1.546,0.516 2.062,0.516l0.515,-0.516c1.546,-0.515 3.092,-0.515 5.154,-1.03c1.03,-0.516 2.061,-1.546 3.092,-1.546l-0,0.515c-2.577,2.061 0.515,6.184 -1.031,8.761c0.516,1.031 1.546,2.062 1.031,3.608l-1.031,1.546c-0.515,1.03 1.546,2.576 1.031,3.607c-0,1.031 -1.031,2.577 -0.515,3.608l1.03,1.03c0.516,1.031 -0.515,3.093 0,4.639l1.031,2.061l-0,4.123c0.515,1.546 1.031,3.607 1.031,4.638l-0,1.546l1.03,0.516l0,1.546l1.031,1.03l0,1.546c0.515,1.031 1.546,0.516 1.546,2.062c-2.577,1.031 -5.669,1.546 -8.246,2.577c-1.03,0.515 -2.576,1.03 -2.576,1.03c-0.516,-0.515 -0.516,-0.515 -0.516,-1.03l0,-3.092c-0.515,-0.516 -1.546,-1.031 -2.061,-2.062c-0.516,-0.515 -0,-1.546 -0.516,-2.577c-0.515,-0.515 -1.03,-1.03 -2.061,-2.061c-0.515,-0.515 0,-1.546 -0.515,-2.062c-0.516,-0.515 -1.546,-1.03 -2.062,-1.546c-1.03,-1.546 -1.03,-2.576 -2.061,-4.123c-0.516,-1.03 -2.062,-1.546 -3.092,-2.576c-1.031,-1.031 -3.608,-5.154 -4.639,-5.669c-0.515,-0 -2.576,-0 -3.607,-0.516c-1.031,-0.515 -1.546,-2.576 -3.092,-3.092c-0.516,0.516 -0.516,0.516 -1.031,0.516l-1.546,-1.546l-3.092,-0c-0.515,-0 -1.546,-1.031 -2.062,-1.031l-3.092,-0l-1.03,-0.516c-0.516,0 -1.546,0.516 -2.062,0.516c-0.515,-0 -2.061,-1.031 -2.577,-1.031c-1.03,-0.515 -3.092,0.515 -4.122,0.515c-1.547,0 -2.577,-1.03 -4.123,0l-0.516,0.516l-3.092,-0l-0.515,0.515c-1.546,0.516 -2.577,0 -3.608,0.516c-1.03,0.515 -2.061,1.546 -3.092,1.546l-2.061,-0c-1.546,0.515 -3.608,1.546 -5.154,2.061l-2.061,0l-0.516,1.546l-2.061,0.515l-0.515,1.031l-1.031,0c-1.031,0.516 -1.546,2.062 -2.577,2.577c-1.031,0.515 -2.577,1.546 -3.607,2.061c-1.031,0.516 -2.062,0 -2.577,0.516l-0.516,1.03c-1.03,0.516 -2.061,0 -3.092,0.516c1.031,1.546 -0.515,1.546 0,3.092c0,1.031 1.546,1.546 1.031,2.577c-0.515,2.577 -2.577,1.546 -3.608,3.092l0,1.031c-1.03,1.546 -3.607,2.061 -4.638,3.607c-1.03,1.031 -0.515,2.062 -1.03,3.608c-0.516,1.546 -2.062,2.576 -2.577,4.123c0.515,0.515 0.515,0.515 0.515,1.546c-2.577,2.061 -4.123,9.791 -3.092,13.399c-1.031,0.515 -1.031,0.515 -1.031,2.061c1.546,2.062 -1.03,2.577 -0.515,4.639l-0,2.576l-0.515,0.516c-0.516,1.03 0.515,1.546 -0,2.061l-0.516,0.515l0,3.608c0,1.031 0.516,2.577 0.516,3.092c-0,1.031 -1.031,1.546 -0.516,3.092l0.516,0.516l-0.516,-0l0,1.546c0.516,0.515 0.516,0.515 1.031,1.03c-0.515,0.516 -0.515,1.031 -0,2.062c-2.062,2.577 -0.515,6.7 -0,8.761l-0,2.577c0.515,0.515 1.031,1.03 1.546,1.03l-0,1.031c-0,0.516 0.515,0 0.515,0.516c-0.515,0.515 -0.515,0.515 -0.515,1.546c1.546,2.576 1.546,5.669 1.546,9.276l0.515,0l0.516,-1.031c0.515,0.516 -0,1.546 -0,2.062l1.546,1.546c1.546,3.607 0.515,4.638 4.123,6.184c-0,3.608 3.092,5.669 5.153,7.215l1.031,0.515l-0,1.031l1.031,0.516c0.515,0.515 0.515,2.061 1.03,3.092l1.031,-0c0.515,0.515 1.031,1.546 1.546,2.576c0.516,0.516 1.546,1.031 2.062,1.547c0.515,0.515 1.03,1.546 1.546,2.061c1.03,-0 1.546,0.515 2.576,0.515c0.516,0.516 1.031,1.031 2.062,1.546l-0.515,1.031c1.03,0 1.03,-0.515 2.061,-0.515c0.515,0.515 3.092,3.607 3.607,3.607c0.516,-0.515 0.516,-0.515 1.031,-0.515l0.516,1.031c1.03,1.546 -0,-0 1.546,0.515c0.515,0.515 1.03,1.031 2.061,1.031c0.515,0.515 0.515,1.546 1.031,2.061l0.515,0c0.516,-0.515 0.516,-0.515 0.516,-1.546l0.515,0l0.515,0.515c0,0.516 -0.515,1.031 0,1.547l0.516,0.515l0.515,-0c0.515,-1.031 -0,-1.546 1.546,-1.546c0,0.515 0.515,1.546 1.031,2.577c3.607,-2.062 6.699,3.092 9.792,2.576c0.515,0 1.546,-0.515 2.061,-0.515c1.031,0 2.577,1.031 3.607,1.546l3.093,0l1.03,1.031c1.031,0.515 6.185,-0.516 7.215,-0.516c1.031,0 1.031,1.031 2.577,0.516c1.546,-0.516 4.638,-0 6.7,-0c1.03,-0 1.546,-0.516 2.577,-0.516c0.515,0 -0,0.516 1.03,0.516c1.031,-1.031 6.185,-1.546 8.246,-2.062c0.515,0 1.031,0.516 1.546,0c1.031,-0.515 2.061,-1.546 3.092,-1.546c1.546,-0.515 4.123,0 5.154,0c1.546,-0.515 2.577,-1.546 4.123,-2.061c1.03,-0.515 2.576,-0 3.607,-0.515c1.031,-0.516 2.062,-2.062 3.092,-2.577l1.546,-0l0.516,-1.031c2.061,-1.546 4.123,-2.577 6.184,-3.607c1.031,-1.031 1.031,-2.577 3.092,-3.093c0,1.031 -1.031,1.546 -1.031,3.093l0.516,1.03l-0.516,9.277c0,0.515 0.516,0.515 0.516,1.546c-0.516,0.515 -0.516,1.546 -1.031,2.061c-1.031,0.516 -2.577,0.516 -3.607,1.031c-2.577,1.546 -5.669,4.123 -8.246,5.669c-3.092,1.546 -6.184,1.546 -9.277,2.577c-4.122,1.546 -8.761,2.576 -13.399,3.607l-3.092,0c-2.061,0.515 -5.669,1.031 -7.73,1.546c-1.031,0 -2.577,-0.515 -3.608,0c-15.976,2.062 -36.075,-1.031 -49.474,-5.669c-7.215,-2.577 -14.946,-4.123 -20.099,-8.761l-1.546,0c-2.062,-1.031 -6.185,-3.607 -6.185,-6.184c1.547,-0.515 2.577,-2.062 3.608,-2.062l2.061,0l0.516,-0.515c1.03,0 1.546,0.515 2.577,0l0.515,-1.031c-0.515,-0.515 -0.515,-0.515 -1.546,-0.515c-1.031,0.515 -1.546,-0.515 -2.577,-0.515l-1.031,0.515c-1.03,0 -1.03,-0.515 -1.546,-0.515c-0.515,-0 -1.03,0.515 -1.546,0.515l-2.577,0l-1.03,0.515l-0.516,-0.515c-1.546,-0.515 -4.123,0.515 -5.153,0c-0.516,0 -0.516,0 -1.031,-0.515c0.515,-0.516 0.515,-0.516 0.515,-1.031c-3.607,-1.031 -5.153,-4.123 -7.215,-5.669c-1.03,-0.515 -2.576,-1.546 -3.092,-2.577c-0.515,-1.031 -0.515,-2.061 -1.031,-3.092l-1.546,-1.546c-0.515,-0.515 0,-1.031 0,-2.061c-0.515,-1.031 -2.061,-1.547 -2.576,-2.062c-1.031,-1.546 -1.031,-2.577 -1.546,-4.123c-0.516,-1.03 -1.547,-1.546 -2.062,-2.577c-0.515,-1.546 -1.031,-2.576 -1.546,-4.122l-0.515,-0.516l-0,-1.546c-0.516,-0.515 -1.546,-1.546 -2.062,-2.061c-0.515,-1.031 0,-1.546 -0.515,-2.062c-0.515,-1.03 -2.062,-1.03 -2.577,-3.092c1.546,-2.577 -1.031,-5.153 -0.515,-7.73l0.515,-0.516c0,0 -1.546,-4.638 -1.546,-5.153c0,-1.031 0,-1.546 0.515,-2.577c0,-0.515 -1.03,-1.031 -1.03,-1.546c-0,-0.515 0.515,-0.515 0.515,-1.546c-0.515,-1.031 -2.061,-2.577 -2.577,-3.608c-0.515,-1.03 0,-1.546 0,-2.061l-1.03,-0.515l-0,-1.031c-0.516,-0.515 -1.547,-0.515 -2.062,-1.031c-2.577,-2.577 -4.638,-5.669 -4.123,-9.792c1.546,-1.03 2.577,-2.061 3.608,-3.092c2.577,-3.607 3.607,-3.607 4.123,-4.123Zm158.73,27.314c-0,1.031 -0.516,1.546 -1.031,2.577l0,1.031l-0.515,0.515l-0,1.546c-0,1.031 -0.516,2.062 -1.546,3.092l0.515,1.031c0,0.516 -1.546,2.062 -2.061,3.092c-0.516,1.031 -1.031,6.185 -2.062,6.7l-2.061,0.515l-0,0.516l1.03,1.03c-0.515,0.516 -1.03,0.516 -1.03,1.546l0.515,1.547c-0.515,1.03 -1.546,1.546 -2.061,2.061l-0,2.061l-1.546,1.031l-0,1.031c-0.516,0.515 -1.546,1.031 -1.546,1.546l-0,1.546c-0.516,0.515 -1.547,0.515 -2.062,1.031l-0.515,1.546c-0.516,1.03 -2.062,1.03 -2.577,2.061c-1.546,1.546 -5.154,6.184 -7.215,7.215l-1.546,0l-1.031,1.546c-1.031,1.031 -2.577,1.031 -3.607,1.546c-1.546,1.031 -3.093,3.093 -5.154,3.608l-3.092,-0c-3.608,1.031 -8.246,2.577 -11.853,3.607c-1.546,0.516 -3.092,0 -3.608,0l-9.276,0l-0,-2.576c2.061,-2.062 -1.546,-5.154 1.03,-6.7c1.031,1.031 4.123,2.061 5.154,2.061c0,-1.03 -0.515,-1.03 0,-1.03l2.577,-0c-0,1.03 -0,1.03 1.031,1.03c0.515,-0.515 -0,-1.03 1.03,-1.03l0,0.515l1.031,-0.515c0.515,-0 1.031,1.03 2.061,0.515c0.516,-0 0.516,-0.515 1.546,-1.031c0.516,0.516 0,0.516 1.031,0.516c0.516,-1.546 2.577,-3.608 4.638,-3.608c0.516,0.515 0.516,1.031 1.031,1.031l0,-1.546c0.515,0.515 0.515,0.515 1.546,0.515c0,-1.546 -0.515,-2.577 0,-3.607c0.516,-2.062 2.577,-2.062 4.123,-2.577c0,-1.546 0.515,-1.546 1.031,-2.577c0.515,-1.031 -0.516,-1.031 -0.516,-2.061l1.546,-1.546l0,-2.062l1.031,-1.031l0,-1.546c0.516,-1.03 2.062,-3.092 2.577,-4.123l-0,-2.061c1.546,-5.669 1.546,-6.7 7.73,-8.246l0,-0.515c-0.515,-0.515 -0.515,-0.515 -1.546,-0.515c-0.515,0.515 -0.515,0.515 -1.546,0.515l-0.515,-1.031l-0,-7.215c-0,-1.546 1.031,-2.577 0.515,-3.092c0,-0.515 -0.515,-0.515 -0.515,-1.546c0.515,-0.515 1.031,-1.546 1.031,-2.577c-0.516,-0.515 -2.062,-2.577 -2.577,-3.607l0.515,-0.516c-1.546,-1.03 -0.515,-1.03 -1.031,-2.061l-1.03,-1.031c-0.516,-1.031 -0,-1.546 -0.516,-2.577c-0.515,-1.546 -2.576,-2.576 -3.092,-5.153c2.062,0.515 3.608,1.546 5.669,0.515l1.031,-0.515c2.061,-0.516 3.092,1.031 4.638,-0c2.061,-1.031 1.546,-3.092 2.577,-4.638c0.515,-1.031 1.546,-1.546 2.577,-2.062c1.546,-2.061 3.092,-4.123 5.153,-6.184l0,-1.031l1.031,0c1.546,-0.515 1.546,-2.061 2.577,-2.577c0.515,0 1.546,-0.515 2.061,-0.515l0.516,-1.031c0.515,-0.515 1.546,0 2.061,-0.515l0.515,-1.031c1.031,-0.515 2.577,-1.546 3.608,-2.061c1.031,-0.516 1.031,-0 2.061,-0l1.546,-1.031c1.031,0 2.062,-0.515 3.092,-0.515c3.093,-1.031 7.731,-3.092 11.338,-2.577l0,0.515l1.031,0c0.515,-0.515 0.515,-1.03 1.031,-1.546c6.699,0.516 13.399,0 18.553,1.546c2.576,-1.03 7.215,-0.515 10.307,0c2.061,0.516 4.638,-0.515 6.184,0c1.546,0.516 8.761,-0.515 10.307,-0.515c1.031,-0.515 3.608,-0 3.608,-0c-0.516,0.515 -0.516,0.515 -0.516,1.546c1.031,1.031 1.546,2.577 2.577,3.608l0,0.515c-1.031,1.546 -3.607,1.031 -5.669,2.061c-1.03,0.516 -5.669,4.123 -6.184,4.639c-0.515,1.03 0.515,1.546 -0,2.576c-0.515,0.516 -1.546,2.062 -1.546,2.577c-0,0.515 1.031,0 1.031,1.546l-1.031,3.608l1.031,1.546l-0.516,2.577l0,1.546c0,0.515 -1.03,2.061 -1.03,2.576c-0,1.031 0.515,1.031 0.515,1.546c-0,1.031 -0,2.062 -0.515,3.093l0.515,1.03l-0,1.546l0.515,0c0.516,1.031 0,3.608 0,4.123c0,2.062 0.516,4.123 0.516,5.154l-0,3.607c0.515,1.031 0.515,2.577 0.515,4.123c-0,0.516 -0.515,2.577 -0,3.608l0.515,0.515c0.516,1.031 -0.515,2.577 0,3.608c0,0.515 0.516,1.546 0.516,2.061l-0.516,1.546c0,1.031 0.516,4.123 0.516,4.638l-0.516,0l0,0.516l1.546,-0l0,3.092l2.062,2.061c0.515,0.516 1.031,0 2.061,0l1.031,1.546c1.031,0.516 3.092,1.546 4.123,1.546c0.515,-0.515 0.515,-1.03 1.546,-1.03c0.515,1.03 1.031,1.03 1.546,2.061c-2.061,1.031 -1.546,3.092 -3.092,4.638c-0.516,0 -7.731,-0.515 -8.761,0c-0.516,0 -0.516,0.516 -1.546,0.516c-3.092,-0.516 -6.7,-0.516 -9.792,-0.516c-2.062,0 -3.092,1.031 -4.638,0.516c-3.608,-1.031 -11.854,-0.516 -14.946,-0l-8.761,-0c-0.515,-1.031 -0.515,-1.546 -0.515,-3.092c-0.516,-0.516 -1.031,-1.547 -1.031,-3.093l1.031,0c0.515,0.516 1.031,0.516 2.061,0.516c0.516,-1.031 1.546,-1.031 3.092,-1.031c0.516,0.515 0.516,0.515 1.546,0.515c0.516,-1.03 1.547,-1.546 2.062,-2.061c0.515,-1.031 -0,-1.546 0.515,-2.577c0.516,-0.515 2.062,-0.515 2.062,-1.031l-0,-1.546c-0,-0.515 1.546,-1.546 1.546,-2.061c-1.546,-1.546 0.515,-2.061 -0,-4.123c-0,-0.515 -0.516,-0.515 -0.516,-1.031c0.516,-0.515 0.516,-0.515 1.031,-1.03c-1.546,-1.546 0,-2.577 -0.515,-3.092l-1.031,-0.516c-0.515,-0.515 0,-3.092 0,-3.092c0,-0.515 0.515,-0.515 0.515,-0.515l0,-1.546l0.516,-0l-0,-1.546l0.515,-0.516c-0.515,-1.031 -0.515,-2.061 -0.515,-3.607c-1.031,-0.516 -2.577,-0.516 -4.123,-0.516c-0.515,-0.515 -5.669,-2.576 -6.7,-3.092l-3.092,0c-1.546,-0.515 -4.638,-1.031 -6.7,-1.546l-2.061,0c-4.123,-1.031 -8.246,-1.546 -11.853,-1.031Zm4.123,-11.338c0.515,-1.03 -0,-1.546 0.515,-1.546l0.515,1.031c0.516,0 1.546,-1.546 3.093,-1.031l0.515,0.516c1.031,0.515 1.546,-0.516 3.092,-0c0.515,-0 1.546,1.03 2.061,1.03c2.062,0.516 3.093,0 4.639,0.516l2.061,1.031l2.577,-0l1.031,1.03c2.576,1.031 5.153,-1.546 6.184,1.031c0.515,0.515 0.515,2.061 1.031,2.577l0.515,-0l-0,-1.546c-0.515,-1.031 0.515,-3.092 -0,-4.639l-0,-1.546l-1.031,-0.515c-0.515,-1.031 1.031,-3.092 0.516,-5.154c-0.516,-1.546 -1.031,-4.638 -1.031,-5.668c-0.515,-2.577 0.515,-7.731 -1.546,-9.277c-1.031,-1.031 -3.608,-1.031 -5.154,-1.031c-1.546,1.031 -3.607,1.031 -5.669,2.062l-1.546,1.546c-1.03,0.515 -2.061,0.515 -3.092,1.031l0,0.515l-2.061,1.031c-1.031,0.515 -2.577,0.515 -3.092,1.546c-0.516,1.03 -0,1.546 -0.516,2.061c-1.031,1.031 -1.546,1.546 -2.577,2.577c-0.515,1.031 0,2.061 -0.515,3.092c-0.515,0.515 -1.546,1.031 -1.546,1.546c-0,0.516 0.515,2.062 -0,3.092c-0.515,1.031 -1.031,1.031 -1.546,2.062c2.061,0.515 2.061,1.03 2.577,1.03Zm79.88,-33.498c2.062,1.031 6.184,0.516 9.277,1.031l3.607,-0c4.638,0.515 8.761,1.031 14.43,1.031l0,0.515c0.515,0.515 3.092,0.515 4.123,0.515c0.515,-1.03 0.515,-1.546 2.577,-1.546c1.03,1.031 2.061,1.546 3.607,1.031c0,-0.515 0,-1.031 0.516,-1.031c0.515,-0.515 5.669,-0.515 6.699,-0.515c5.154,1.031 11.853,-0 16.492,0.515l2.061,0l1.031,0.516c1.031,0.515 2.061,-0.516 2.577,-0l-0,0.515l1.03,0c1.031,-1.031 4.639,1.031 6.185,1.031l2.061,-0c1.031,0.515 2.577,1.546 3.608,1.546l1.546,-0l1.03,1.031l1.546,-0l1.031,1.546l2.062,-0l0.515,1.03c0.515,1.031 2.577,1.546 3.092,2.577l0,1.546c0.515,0.516 2.577,1.031 3.092,2.062c2.062,3.092 3.608,8.761 3.092,12.368c-0.515,2.062 1.546,3.092 0.516,5.669c-0.516,1.031 -2.062,2.062 -2.577,3.608l-0,1.546c-0.515,1.03 -2.577,3.092 -3.092,4.123l-1.031,0.515l0,0.515c-1.031,0 -1.546,0.516 -2.577,0.516l-1.03,1.03c-2.577,1.031 -8.246,1.031 -8.246,3.093c0.515,0.515 1.546,1.546 2.061,2.061l1.546,-0c2.062,1.031 3.093,2.577 4.123,4.638l2.062,0l-0.516,1.031c2.062,0.515 4.639,1.546 6.185,3.092c1.546,1.031 2.061,3.092 3.607,3.608c0.515,0.515 1.546,0.515 2.062,1.03l0.515,1.546l1.546,0l0.515,1.031c0.516,0.515 2.062,1.031 2.577,1.546l0,1.031c1.031,1.546 4.123,2.061 4.123,4.123l-0,0.515c0.515,0.515 1.031,0.515 2.061,0l2.062,4.123l1.546,-0c-0,0.515 2.061,2.577 3.092,3.092c0.515,-1.031 2.577,-1.546 3.092,-3.092l0.516,-1.031l1.546,-0.515l-0,-1.546c0.515,-1.031 1.546,-1.546 2.061,-2.577c-1.031,-0.515 -1.546,-1.031 -1.546,-2.577c1.031,-1.546 1.031,-5.669 -0,-6.699c1.546,-1.031 0.515,-2.577 0.515,-4.123c0,-1.031 1.031,-2.062 0.516,-3.092l-0.516,-2.062c0,-0.515 0.516,-1.031 0,-1.546l-1.03,-1.546c-0,-0.515 0.515,-1.546 0.515,-2.577l2.061,0l0,-1.031l-1.546,0c0,-4.122 -1.03,-10.307 0,-13.914c0.516,-2.062 -1.03,-4.638 -0.515,-6.185c-0,-1.03 1.031,-1.03 1.031,-2.576c-0.516,-0.516 -0.516,-0.516 -1.546,-0.516c-0,-1.03 0.515,-3.092 -0,-3.607l-1.031,-1.031c-0.515,-1.031 -0.515,-1.546 -0,-2.061c-0.515,-0.516 -1.031,-1.031 -1.031,-2.062c1.031,-0.515 1.031,-1.03 1.546,-2.061l-2.061,-1.546l-0,-1.546c-0.516,-0.516 -1.546,-0.516 -2.062,-1.031l0,-1.031l-1.546,0c-1.03,-0.515 -2.061,-1.546 -3.092,-2.061c-1.546,-0.516 -2.577,-0 -3.607,-0.516c0.515,-0.515 0.515,-0.515 0.515,-1.03l-0.515,-1.031c2.576,-1.031 0.515,-3.092 4.638,-3.092c1.546,1.031 4.123,-0 5.669,-0c1.031,-0 5.153,1.031 6.184,0.515c0.515,0 2.577,-0.515 3.092,-0.515c2.577,0.515 8.246,1.031 11.338,-0c1.546,-0.515 3.608,1.031 5.154,1.031l0.515,-0.516l1.546,0l0.516,-0.515c1.03,-0.515 2.576,0.515 3.092,0.515l6.699,-0.515c0.516,1.546 2.062,3.092 3.092,4.123l0,0.515c-1.03,0.515 -2.576,0 -3.607,0.515c-0.515,0 -7.215,5.154 -7.215,5.669l-0,1.031l-1.031,0.515c-1.03,1.031 -2.061,4.123 -1.546,6.7c0,1.031 0.516,2.062 0.516,3.092c0.515,1.546 -1.031,2.062 -0.516,3.092c0,0.516 0.516,0.516 0.516,2.062c-0,-0 -2.062,6.699 -1.547,7.73c0,0.516 0.516,1.031 0.516,2.062l-0.516,-0c-1.03,-0.516 -1.546,-0.516 -2.576,-0c-0.516,0.515 -0.516,2.061 -0,3.607l-0,2.062c0.515,1.03 0.515,1.03 1.546,1.03l0.515,0c1.031,0.516 1.031,1.031 1.031,2.062c1.031,1.546 -0,7.215 -0,8.761l1.031,2.061c-0,0.516 -0.516,1.546 -0.516,2.062c0,1.546 0,4.123 0.516,5.669c-0,0.515 1.03,1.03 0.515,1.546l-0.515,0.515l-0,1.546c-0,0.515 -0.516,1.031 -0.516,1.546l0.516,0c0.515,0.516 1.546,0 2.061,0.516c-0.515,0.515 -1.031,0.515 -1.031,1.546c1.031,1.03 0,1.546 0,2.576c1.031,3.608 3.092,2.062 3.608,3.608c0.515,1.031 1.546,3.607 3.092,4.123l0.515,-1.546c0.516,-0.516 3.092,-0.516 4.123,-0l1.031,-0l-0,0.515c-1.031,1.546 -1.031,4.638 -2.577,5.154c-1.031,0.515 -2.577,-0 -3.607,-0c-2.062,0.515 -1.547,-0 -3.608,-0c-3.092,1.546 -11.338,-0 -13.915,-0l-0.515,1.03l-0.515,0c-0.516,-1.03 -0.516,-1.546 -2.062,-1.546c-2.061,1.031 -4.638,-0.515 -6.699,-1.03c-1.031,-0 -2.062,0.515 -3.093,0.515l0,0.515c1.546,0.516 0,1.546 1.546,2.577c0.516,0.515 1.547,0.515 2.062,1.031l1.031,1.03l1.546,0c0.515,0.516 0.515,1.031 1.546,1.547c0.515,-0.516 0.515,-0.516 1.031,-0.516c1.546,2.062 3.092,0 6.184,1.031c3.092,1.031 6.184,2.061 9.792,1.031l3.092,-0c2.061,-0.516 3.607,-1.031 5.153,-1.031l0,1.031l3.608,3.607l-0,0.516c-2.577,0.515 -4.638,1.546 -6.7,2.061c-3.092,1.031 -6.699,1.031 -9.276,1.546c-2.062,0.515 -4.123,-0.515 -5.669,0c-6.184,1.031 -17.007,-1.031 -22.676,-3.092l-2.577,-0c-1.546,-0.515 -3.607,-1.546 -5.669,-2.062c-1.03,-0.515 -2.061,-1.546 -3.092,-2.061c-1.546,-0.515 -3.092,-0.515 -4.638,-1.031l-1.031,-1.546c-1.03,-0.515 -1.546,-0.515 -2.577,-1.031c-0.515,-0.515 -1.546,-1.03 -2.061,-1.546c-0.515,-0.515 -1.546,0 -2.577,-0.515l-0.515,-1.031l-3.092,-2.576c-0.516,-0 -1.546,-0.516 -2.062,-0.516l-2.061,-1.031l-0.515,-1.03l-1.547,-0c-0.515,-0.516 -1.03,-2.062 -2.061,-3.092c-1.031,-0.516 -2.061,-0.516 -3.092,-1.031c-0.515,-0.515 -1.031,-1.546 -1.546,-2.062c-2.062,-1.546 -3.608,-3.092 -5.669,-4.638c-0.515,-1.03 -1.031,-1.546 -2.062,-2.577c-1.03,-0.515 -2.061,-1.546 -3.092,-2.061c-0.515,0 -1.03,-0.515 -2.061,-0.515l-0,-1.031c-1.031,-1.546 -3.092,-2.061 -4.638,-3.092c-1.031,-0.516 -1.031,-2.062 -2.062,-2.577c-0.515,0 -1.546,-0.515 -2.061,-0.515c-0.516,-0.516 -1.031,-1.031 -1.546,-2.062c-3.608,-2.577 -6.7,-5.153 -10.307,-7.73c-1.031,-0.515 -1.547,-0.515 -2.577,-1.031c-0.516,-0.515 -1.031,-1.031 -1.546,-2.061c-1.031,-1.031 -6.7,-3.608 -7.215,-4.123c0.515,-0 5.153,-1.546 5.669,-2.062l0.515,-1.03c1.031,-0 1.031,0.515 1.546,-0c-0.515,-0.516 -1.031,-0.516 -0.515,-1.031c0.515,-0.515 -0,-0.515 1.03,-0.515c0.516,1.03 1.031,0.515 2.577,1.03c1.031,0.516 2.062,1.546 3.608,1.546l5.153,0c0.516,0 2.062,-1.03 2.577,-1.03c1.031,-0 3.608,0.515 4.638,-0l0.516,-1.031c0.515,0 1.03,0.515 1.546,0c0.515,-1.031 1.03,-2.061 1.546,-3.092c0.515,-0.516 1.546,-1.031 2.061,-1.546l0,-2.577l1.546,-1.031c0.516,-1.03 -0.515,-1.03 -0.515,-2.061c-0,-0.516 1.546,-3.092 1.546,-3.608c-0,-1.03 -1.031,-2.576 -1.546,-3.092c-0,-1.031 1.031,-1.031 0.515,-2.061c0,-0.516 -1.03,-1.546 -1.03,-3.092l-1.031,-0c-1.546,-4.123 -4.638,-5.154 -8.761,-6.7l-1.031,-1.031c-1.546,-0.515 -3.092,0 -4.638,-0.515c-1.546,-0.515 -6.7,-0.515 -8.246,-0c-2.577,1.031 -5.669,2.577 -7.73,3.607c-0,1.546 -1.546,2.062 -1.031,3.608c0,-0 0.515,0.515 0.515,1.031c-0.515,-0 -1.03,0.515 -1.546,0.515c0.516,3.092 0,8.246 -1.03,11.853c-0.516,1.031 0.515,3.092 -0,5.154c-0,1.03 -1.031,5.669 -0.516,6.184l0.516,0.515l-0,1.547l0.515,0.515c-0,1.031 -0.515,3.607 -0.515,4.123l0.515,2.577c0.515,1.546 -0.515,2.061 -0.515,3.092c-0,0.515 0.515,2.576 0.515,3.092c-0,1.031 -0.515,3.092 -0.515,4.123l0.515,1.03c0.515,1.546 -0.515,2.577 -0,4.123c1.546,3.608 1.546,8.761 2.061,12.369c3.093,0.515 5.154,2.577 8.761,3.607c1.031,0 1.547,-0.515 2.577,-0.515c0,1.546 -0.515,1.546 -0.515,2.061l-0,1.031c-0.515,1.546 -1.031,2.577 -3.092,2.577l-0.516,0.515c-1.03,0.516 -1.546,-0.515 -2.061,-0.515l-5.669,-0c-0.515,-0 -1.031,-0.515 -2.061,-0.515c-0.516,-0 -5.669,0.515 -6.7,-0c-0.515,-0 -1.546,-0.516 -2.061,-0.516c-1.547,0 -4.639,0.516 -6.7,0c-0.515,0 -1.546,-0.515 -2.062,0c-6.184,1.546 -11.853,0 -17.522,0l-1.03,-1.546l-0,-2.061c-0,-0.516 -1.031,-0.516 -1.031,-1.546c1.031,-0.516 1.031,-0.516 3.092,-0.516c1.546,1.031 1.546,-0.515 3.092,0c0.515,0 0.515,0.516 1.546,0.516l0,-1.546c0.516,-0.516 3.092,-2.577 3.608,-2.577c1.546,-0.516 2.061,0.515 2.576,-1.031c-0.515,-0.515 -0.515,-0.515 -1.03,-1.031c-0,-3.092 0.515,-6.184 1.03,-9.791c0,-1.547 -1.03,-5.154 -0.515,-5.669l0.515,-0.516c0.516,-1.546 -0.515,-6.184 -0.515,-6.184l0.515,-1.031c-1.03,-1.03 0,-2.061 0,-3.607c0,-0.516 0.516,-2.577 0,-3.608c0,-0.515 -1.03,-2.061 -1.03,-2.577c-0,-1.03 0.515,-2.576 -0,-3.607c-0,-0.515 -0.516,-1.031 -1.031,-1.546c1.031,-0.516 1.031,-1.546 1.031,-3.092l4.123,-0l-0,-1.546c-1.546,-0.516 -3.608,-0.516 -5.669,-1.031l-0,-1.031c0.515,-1.031 -0,-3.092 -0,-3.607c-0,-1.546 -0.516,-5.154 -1.031,-8.761c-0.515,-3.608 1.031,-7.215 -2.577,-9.792c-1.031,-0.516 -2.061,-1.546 -3.607,-2.062c-1.546,-0.515 -5.154,0 -6.185,-1.546c1.546,-1.03 1.546,-3.092 2.577,-4.638c3.092,2.577 4.638,3.092 5.669,3.092Zm177.799,81.942l1.03,-1.546l1.031,0c2.061,-1.031 1.031,-1.546 4.123,-1.031l0.515,-1.03c-0.515,-0.516 -1.031,-1.031 -1.031,-2.062c1.031,0 1.031,-0.515 1.031,-1.546c-2.061,-1.031 -0.515,-10.307 0.516,-12.368l-0.516,-0.516c2.062,-2.061 0.516,-4.638 1.546,-7.73c0.516,-2.062 0,-4.123 0.516,-5.669c0.515,-1.546 1.03,-3.092 1.546,-4.123l-2.577,0l-0,-1.031c1.031,-1.03 -0,-1.546 -0.515,-3.092l0.515,0c1.031,0 2.577,-0.515 3.607,-0.515l0,-0.516c-1.03,-0.515 -2.061,-1.03 -4.122,-1.03c0.515,-1.546 -1.031,-2.577 -0.516,-4.123c0,-1.546 0.516,-3.608 1.031,-5.154c0.515,-1.03 -0,-2.061 -0,-3.092c-1.031,-2.577 -2.062,-5.669 -2.062,-7.73c0.516,-0.516 0.516,-0 0.516,-0.516c-1.031,-0.515 -0.516,-1.546 -0,-2.576c-0.516,-0.516 -1.031,-0.516 -1.546,-1.546l0.515,-1.031c-2.577,-1.031 -3.607,-3.608 -6.184,-4.638c-1.546,-0.516 -3.608,-0.516 -4.123,-2.062c0.515,-0.515 1.546,-1.546 1.546,-2.577l1.546,0l0,-1.03l0.515,-0.516c1.031,0.516 3.093,1.031 4.123,1.031l1.546,-0.515l1.031,0.515c1.031,0.515 1.546,-0.515 2.577,-0.515c1.031,-0 4.638,1.03 6.7,0.515c1.546,-0.515 3.607,-0.515 5.669,-0.515l3.092,-0l1.03,-0.516c0.516,0 1.546,0.516 2.577,0.516c0.516,-0 1.031,-0.516 1.546,-0.516c0.516,0 1.031,0.516 2.062,0.516c0.515,-0 0.515,-0.516 1.03,-0.516l0.516,0.516c1.03,0.515 3.092,-0.516 4.123,-0.516c0.515,0 0.515,0.516 1.546,0.516c2.576,-0.516 6.699,-1.031 10.307,-0.516c1.546,0.516 3.607,-0.515 5.153,0l2.577,0c2.062,0.516 5.669,0 8.246,0.516l3.092,-0l1.031,1.03c1.031,0 1.546,-1.03 3.092,-0.515l1.031,0.515c1.546,0.516 2.061,-0.515 3.607,0c1.031,0.516 2.062,1.546 3.092,2.062l1.546,-0c1.546,0.515 2.577,2.061 3.608,3.092c-0.515,0.515 -1.031,0.515 -1.031,1.546c1.031,0 2.062,-1.546 2.577,-1.031c0.515,0 2.061,1.031 2.577,1.546l-0,1.031c0.515,0.515 1.03,1.031 1.546,1.546c0.515,0.516 -0,0.516 -0,1.031c0.515,0.515 1.031,0.515 2.061,1.031c0,3.092 1.031,3.607 2.062,5.669c0.515,0.515 -0,3.092 -0,3.607c-0,0.515 0.515,0.515 0.515,1.031c-2.061,1.546 -0.515,2.061 -0.515,3.092l-1.031,1.031c0.515,0.515 0.515,1.546 0.515,2.061c-0.515,1.031 -1.03,1.031 -2.061,1.546l-0.515,1.546c-0.516,0.516 -1.031,0.516 -2.062,1.031c-0.515,0.515 -1.031,1.031 -1.546,2.061c-1.031,0 -2.061,0.516 -3.607,0.516l-0.516,1.03c-0.515,0.516 -1.031,-0.515 -1.546,0c-1.031,0.516 -1.546,1.031 -1.546,2.577l2.061,0c1.547,-1.546 2.577,0.516 3.608,1.031c2.061,1.031 7.73,3.607 7.73,6.7c-0.515,0.515 -1.03,0.515 -1.03,1.03l1.546,0l1.03,-0.515c0.516,0.515 3.093,4.638 3.608,5.669l-0,1.546l1.031,1.031c0.515,1.03 1.03,8.245 0.515,9.276l-1.031,1.546c-0.515,1.546 0,3.608 0,4.123l-1.546,1.546c-0.515,1.031 -1.031,2.062 -1.546,3.092c-1.031,1.031 -3.092,1.031 -3.607,2.062l-0.516,1.03c-1.546,1.546 -4.123,2.062 -6.184,3.093c-2.061,1.03 -4.123,2.061 -6.184,2.576l-2.577,0l-2.577,2.062l-5.153,-0c-2.062,0.515 -6.7,0.515 -9.277,-0c-1.546,-0.516 -5.669,1.03 -7.73,-0c-3.092,-0.516 -7.215,-1.031 -10.307,-1.546c-1.031,-0 -2.577,0.515 -3.608,0.515c-5.154,-0.515 -8.761,-0.515 -13.399,-1.031l-0.516,0.516l-3.607,-0c-1.031,-0 -3.092,0.515 -4.123,0.515c-2.061,0 -5.154,-0.515 -6.7,-0.515c-1.546,-0.516 -3.607,1.03 -5.153,0.515l-0.516,-0.515c-1.546,-0.516 -6.699,1.546 -7.73,1.03c-1.031,-0.515 -1.546,-0.515 -2.061,-2.061c0.515,-1.031 -0,-2.061 -0,-3.092c2.061,-0 4.122,-0 5.669,-1.031Zm31.952,-45.867c-0,1.031 1.03,2.577 0.515,3.608c0,1.031 -1.031,2.577 -1.031,3.607c-0.515,1.031 0,3.608 0.516,4.639l-0,3.607l0.515,1.546c0.515,1.546 -0.515,2.577 0,4.123l0,5.669c1.031,3.607 0.515,7.215 1.031,9.792c-0,1.03 -0.516,1.03 -0,1.546l2.577,2.577c0.515,0.515 3.092,0.515 4.122,0.515c1.031,0.515 1.547,1.546 2.577,1.546l2.062,-0c3.092,-0 7.215,-0 10.307,-0.515c1.546,-0.516 3.607,0.515 5.153,-0.516c2.062,-1.03 5.669,-4.638 7.215,-4.638c0.516,0.515 0.516,0.515 1.547,0.515l-0,-0.515c-1.547,-1.031 -0.516,-3.092 -0.516,-5.669c1.031,-0.515 1.031,0 1.031,-1.546c-0,-0.515 -0.515,-2.061 -0.515,-3.092c-0,-1.031 1.03,-2.062 1.03,-3.092c0,-0.516 -0.515,-1.546 -0.515,-2.062l-0,-1.546c-0.515,-1.03 -1.546,-1.03 -2.062,-2.061c-0.515,-1.031 0,-1.546 -0.515,-2.577c-0.515,-1.031 -3.607,-2.061 -4.638,-3.092l-0.516,-1.031l-1.546,-0.515c-1.03,-0.516 -2.061,-2.062 -3.092,-2.577l-3.607,0l-0.516,-0.515c-1.03,-0.516 -2.061,-0.516 -3.092,-1.031l-1.03,-1.031c-1.031,-0.515 -4.123,0 -4.639,0c-2.061,0 -5.153,-0.515 -5.669,-2.061c2.062,-1.546 2.577,-4.123 4.639,-5.154c-0.516,-0.515 -0.516,-0.515 -1.031,-1.546c0.515,-0.515 0.515,-1.031 2.061,-1.031c1.031,1.031 3.608,1.031 5.154,1.031c5.669,0.515 13.915,-0.515 15.461,-4.123c0.515,-0.515 1.546,-2.577 1.546,-3.607c-1.031,-0.516 -0.516,-3.608 -0,-5.154l-2.577,-2.577l-0,-1.546l-1.031,-0.515l0,-1.031c-5.153,-4.638 -14.43,-5.669 -21.645,-4.638l-1.546,-0.515l-1.031,1.03c-1.03,0 -2.061,0.516 -3.092,0.516c-1.03,0.515 0,1.03 -2.577,1.03c0,2.062 -1.546,2.577 -2.061,4.123c1.031,0.516 1.031,0.516 1.031,2.062c0.515,1.03 -0.516,1.03 -0.516,1.546l0,4.123l-1.03,0.515l-0,3.608c0.515,1.546 0.515,4.122 1.03,5.668c0.516,1.547 0.516,2.062 0.516,2.577Zm-20.099,7.731l1.031,-0l-0,-0.516l-1.031,0.516Zm100.495,37.105c0.515,0 0.515,0.516 1.546,0c0.515,-0.515 1.546,-2.576 2.576,-3.092c1.546,-1.03 3.093,-0.515 3.093,-3.092c-0.516,-0.515 -0.516,-0.515 -0.516,-1.031c1.031,0 1.031,-0.515 1.546,-1.546c-1.03,-1.546 -0.515,-6.699 0,-9.791c2.062,-1.547 3.608,-3.093 7.215,-3.093l0,-1.546c-1.546,-1.03 -2.576,-0.515 -4.123,1.031c-1.03,-0.515 -2.061,-1.546 -3.092,-2.061c0.516,-1.546 -0.515,-2.577 0,-4.123c1.031,-3.608 0,-7.215 0,-11.338c0,-0 0.516,-0.515 0.516,-1.031l-0.516,-0.515l0.516,-1.546l-0.516,-1.031l0.516,-0.515l-0.516,-0.516c-0.515,-2.577 1.546,-4.638 0.516,-6.699c-0,-0.516 -1.031,-1.031 -1.031,-1.546c-0.515,-1.547 0.515,-3.608 -0,-5.669c-0.515,-2.577 -1.546,-6.7 -1.546,-10.308c-1.031,-0.515 -1.031,-2.061 -2.062,-2.576l-1.546,-1.031l-0.515,-1.031c-2.061,-1.03 -5.669,-0.515 -6.184,-3.607c1.03,-1.031 2.576,-1.546 3.092,-3.092l-0,-1.031c3.092,-0 6.184,1.031 8.761,1.546c2.061,0.515 3.607,-0.515 5.669,-0c0.515,-0 2.061,0.515 3.092,0.515c2.061,0.516 5.669,-0.515 7.215,-0.515c0.515,0.515 0,1.031 1.031,1.546c1.546,-1.031 3.607,-1.546 5.669,-2.061c1.03,-0.516 2.576,0.515 3.092,0.515c1.546,-0.515 2.061,0.515 3.607,-0l1.546,-0.515c2.577,-0.516 5.669,1.03 8.246,0.515c4.123,-1.031 8.761,-1.031 13.399,-0c1.031,-0 2.062,-0 2.577,-0.515c1.031,-0 1.546,0.515 2.062,0.515l1.546,-0c0.515,-0 3.607,0.515 4.123,0.515c1.546,0.516 3.092,1.546 4.122,2.062c2.062,1.03 4.639,0.515 6.7,1.546l1.031,1.031l2.577,-0l0.515,1.03l2.061,0.516c0,1.03 -0.515,1.03 -0.515,2.061l0.515,0c0.516,-0.515 0.516,-1.031 1.546,-1.031c-0.515,2.577 4.639,7.215 5.154,9.792c1.546,4.123 0,13.399 -3.092,15.461l-1.546,0.515l-1.031,1.031l-1.031,-0l-0.515,1.031l-3.092,-0c-1.546,0.515 -0.515,1.03 -3.092,0.515l-1.031,1.031c0.515,0.515 0.515,1.546 1.031,3.092l0.515,-0l0,-0.515l0.515,-0c1.547,-1.031 5.154,1.03 5.669,2.576l-0.515,0.516l0.515,-0c0.516,-0.516 1.031,-0.516 2.062,-0.516c0.515,0.516 1.546,1.031 2.061,1.546c1.546,1.546 2.577,4.123 4.123,6.7l1.546,1.031c0.516,1.03 0.516,2.577 1.031,3.607c0.515,0.516 1.031,1.031 1.546,2.062c1.031,2.576 1.031,6.699 0.515,8.761l0,2.061l-1.03,0.516c-1.546,3.092 -2.577,6.184 -4.123,8.761c-1.031,1.546 -5.669,4.122 -7.215,5.669c-1.031,0.515 -1.546,-0 -2.577,0.515c-1.546,0.515 -3.608,2.061 -5.154,2.577c-2.061,0.515 -3.092,-0.516 -5.153,-0c-5.154,1.03 -13.915,1.546 -18.553,0.515c-1.031,-0.515 -3.092,0 -4.123,0c-1.546,0.515 -3.607,-0.515 -4.638,-0.515l-2.062,-0c-5.153,-1.031 -9.791,-0 -13.914,-1.031c-1.031,-0 -1.031,0.515 -1.546,0.515l-6.185,0l-0.515,0.516c-0.515,-0 -2.061,-0.516 -2.577,-0.516c-1.546,0 -3.607,1.031 -5.669,0.516c-0.515,-0 -1.03,-0.516 -2.061,-0.516l-1.031,0.516c-1.031,-0 -3.092,-1.031 -4.638,-0.516c-1.031,0 -3.092,0.516 -4.638,0c-0.516,0 -2.577,-0.515 -3.608,0c-1.546,0 -3.607,0.516 -4.638,0c-0.515,-3.092 -0.515,-2.061 -2.061,-4.123c1.546,-0.515 3.092,-0.515 4.638,-1.03l2.577,-0.516Zm32.982,-34.013c-1.03,2.577 0.516,5.669 0,9.276c0,3.608 0,8.246 -0.515,11.338l1.031,1.031l-0,1.031l0.515,2.061c0,0.515 -0.515,1.031 -0.515,1.546c2.577,1.031 4.638,2.577 6.699,3.608c1.031,0.515 1.547,-0.516 2.062,-0c1.546,-0 3.607,1.03 5.153,1.03c0.516,0 1.031,-0.515 2.062,-0.515l-0,0.515l2.061,0c1.546,0 3.608,0 4.123,0.516c1.031,-0 2.062,-0.516 3.092,-0.516l0,1.031l0.516,-0c1.03,-1.546 2.061,-3.092 3.607,-3.608c1.546,-0.515 2.062,0 3.092,-0.515c0.516,-0.515 1.031,-2.061 1.546,-3.092c1.031,-0 1.031,0.515 2.062,0.515l-0,-0.515c-0.516,-0.515 -1.031,-1.546 -0.516,-2.061l0.516,-0.516l-0,-1.031c0.515,-1.546 0.515,-2.576 0.515,-4.638l0.516,0c-0.516,-2.061 -0.516,-2.577 -0,-4.123c-0.516,-0.515 -2.062,-1.546 -2.577,-2.576l-0,-1.546l-1.031,-0.516c-0.515,-1.031 0.515,-1.546 0,-2.061l-1.546,-0l-0.515,-1.031c0.515,-0.515 0.515,-0.515 0.515,-1.031c-1.546,-0.515 -1.546,-1.03 -2.577,-1.546l-1.546,0c-0.515,-0.515 -1.546,-1.03 -2.061,-1.546l-1.546,0c-3.093,-1.031 -6.7,-3.607 -9.792,-4.123c-2.577,-0.515 -8.761,-0.515 -9.792,-2.061l0,-1.031c0.515,-0.515 1.031,-0.515 2.061,-0.515c0,-1.546 1.031,-1.546 1.031,-2.577c0.516,-2.061 -0.515,-3.092 0.516,-4.638l1.03,-0c0,0.515 0,1.03 0.516,1.546c1.546,1.031 3.607,1.031 5.669,0.515c0.515,0.516 1.03,1.031 2.061,1.546c1.546,-2.061 8.761,-1.03 10.822,-2.577c0.516,-0.515 0.516,-2.061 1.031,-3.092c0.516,0 1.031,-0.515 1.546,-0.515l0.516,-3.608c0.515,-0.515 0.515,-0.515 1.03,-1.03c-1.03,-0.516 -1.546,-0 -1.546,-1.546c0.516,-0.516 0.516,-1.546 1.031,-2.577c-1.031,-0.515 -0.515,-1.031 -1.031,-2.062l-1.546,-1.03c-1.031,-1.031 -1.546,-3.092 -2.577,-3.608c-1.546,0 -2.576,-0.515 -4.122,-0.515c-6.185,-2.577 -13.4,-2.577 -20.099,-1.031c-0,1.546 -1.546,2.577 -3.608,2.577c-0.515,1.031 -1.546,1.031 -1.546,2.061l0,6.185c-0.515,1.546 -0.515,4.123 -1.031,6.184c-0.515,1.031 0.516,4.638 0.516,4.638c-0,0.516 -1.031,1.031 -1.031,1.031c-0,1.031 0.515,2.061 0.515,3.092c1.546,0.515 2.577,5.154 3.092,8.246Zm73.697,-44.836c0.515,-1.031 2.061,-0.516 3.092,-0.516c1.03,0.516 1.546,0 2.061,0c1.031,0 1.546,1.031 2.577,0.516c1.031,-0 5.669,-0.516 6.7,-0.516l1.03,0.516l1.546,-0.516c1.031,-0.515 2.577,0.516 3.093,0.516c1.03,-0 1.546,-0.516 2.061,-0.516c1.031,0 1.031,0.516 1.546,0.516c1.031,-0 1.031,-1.031 2.577,-0.516l1.031,0.516c1.03,-0 4.638,-0 6.184,-0.516l4.123,0c2.577,-0.515 9.276,-0.515 11.338,0c1.03,0 8.245,0.516 9.791,0c1.031,0 1.546,-0.515 2.577,-0.515c0.516,0.515 0.516,-0 0.516,0.515l-0,1.031l1.546,0l1.03,-0.515l0,-0.516l-2.061,0l-0,-0.515c3.092,-0 6.7,-0 9.276,0.515c1.031,0.516 2.062,-0.515 3.092,0.516l-0.515,0.515l1.031,0c2.061,-2.577 2.061,-0.515 4.638,-1.546c0.515,-0 0.515,-0.515 1.546,-0.515l0,0.515c0,1.031 0.516,2.061 0,3.092l-1.031,1.546l0.516,4.638c0.515,1.031 1.546,3.093 1.546,4.639c0.515,1.546 -0.515,2.576 -0,4.122c1.031,2.577 4.123,4.123 5.153,6.7l-6.699,3.608c-3.092,-5.154 -9.277,-9.792 -14.43,-12.884l-1.031,-1.546c-3.092,-2.577 -6.184,-4.123 -10.307,-5.154c-2.062,0 -4.638,-0.515 -6.7,-0.515l-2.061,-0c-2.062,-0.516 -5.154,-0.516 -7.215,-0c-0,1.546 -0.516,2.576 -1.031,3.607c0,0.516 0.515,1.031 0,2.062l-0.515,-0l-0,3.092l-0.516,0.515c-0.515,1.031 0.516,3.092 0,3.608c-0.515,5.153 -0.515,9.276 -0.515,15.976c3.092,-0 7.73,-0.516 10.307,-1.031l4.123,0l0.515,0.515c1.031,0.516 3.093,-1.03 3.608,-1.03c2.577,-1.031 5.153,-0.516 6.7,-2.062c0.515,-1.031 0.515,-2.061 1.03,-3.607c0,-0.516 1.031,-1.031 1.031,-1.546c-0,-0.516 -0.515,-2.062 -0.515,-2.062l1.03,0c1.031,1.031 4.639,0.516 6.185,0c-0,4.638 -0.516,8.246 0.515,12.884c-0,0.516 -0.515,1.031 -0.515,1.031c-0.516,1.546 0.515,3.092 0.515,3.607c0.515,2.062 -1.546,5.154 -0.515,7.215c0.515,1.546 1.546,1.546 1.546,3.608c-2.062,-0 -6.7,1.031 -8.246,-0l-0,-0.515c1.031,-1.031 0.515,-3.093 -0,-4.123c-2.061,-5.669 -16.491,-5.154 -21.645,-4.123l-1.031,-0.516l-3.092,0l0,2.577l-0.515,1.031c-0,0.515 1.03,4.638 1.03,4.638l0,1.546l0.516,0.516l-0.516,0.515l0,5.669c0,1.546 0.516,3.607 1.031,5.153l1.031,1.031c-0,0.516 -0.515,2.062 -0.515,3.092l0.515,0c1.546,1.546 4.638,0 7.215,0.516c4.123,1.03 12.884,-0.516 15.461,2.576c3.092,-1.546 5.669,-0.515 8.761,0l2.576,0l1.547,1.031l3.092,0c3.092,0.516 6.699,1.031 9.276,2.062c2.577,1.03 5.669,-0.516 6.184,-2.062c-0.515,-0.515 0,-0.515 0,-1.546l-1.03,-1.031c-0.516,-1.546 1.03,-2.576 1.546,-3.092l-0,-3.092c0.515,-1.031 1.031,-2.577 1.546,-3.607c0.515,-1.546 -0,-3.093 1.031,-4.123c1.03,-1.031 4.638,-2.577 5.153,-4.123c-1.546,-1.031 -3.607,-1.031 -5.669,-1.031l-0.515,-0.515c0.515,-0.516 -0,-0.516 -0,-1.546c2.577,-1.546 1.546,-3.608 2.577,-6.185c0.515,-1.03 1.546,-5.668 1.03,-7.73c-0.515,-1.546 -2.061,-3.092 -3.092,-4.638c-1.03,-1.546 -1.546,-3.608 -2.577,-5.154c-0.515,-1.03 -1.546,-0.515 -2.061,-2.577l1.031,0c0.515,0.516 0.515,0.516 2.061,0.516l3.608,-1.546l1.03,0.515c1.546,0.515 3.608,-0.515 4.639,-1.031c1.546,-0.515 2.061,-2.061 3.092,-3.092l-0,-0.515l1.546,-0.515c1.031,-1.547 -0.516,-2.577 2.061,-3.093c0.516,0.516 0.516,0.516 1.031,0.516l0.515,-0.516c0,-0.515 -0.515,-1.03 -1.03,-1.546c0.515,0 1.03,0.516 1.546,0l0.515,-0.515c-0.515,-0.515 -0.515,-0 -0.515,-1.031c2.061,-1.546 4.123,-3.607 6.184,-5.153c5.154,-3.608 11.853,-6.7 18.038,-8.761c1.546,-0.516 2.576,-0 3.607,-0.516c9.276,-2.577 23.706,-2.061 32.983,-0.515c0.515,-0 4.123,-0.515 5.153,-0.515l3.093,-0c2.061,-0.516 4.638,-0.516 6.699,-0.516c0.516,1.031 0.516,1.546 1.546,2.062c0.516,-1.031 2.062,-2.062 3.608,-2.577c-0,2.577 2.061,4.123 3.607,5.153l0,0.516c-1.03,1.546 -2.061,-0 -3.607,-0c-0.516,-0 -4.638,2.577 -4.638,3.092c-2.062,2.577 -2.062,4.638 -3.608,7.73l-1.031,1.546c0,1.031 0.516,1.031 0.516,2.062c-0,1.03 -1.031,2.061 -1.031,3.092c-0.515,1.031 0.515,1.546 0.515,2.577l0,3.607c0,0.516 -0.515,1.546 -1.03,2.062l-1.031,-0c-0.515,0.515 -1.031,1.546 -0.515,2.576l1.03,1.031c1.031,1.546 -0.515,3.092 0,4.638c0.516,1.031 1.031,1.546 1.546,3.093c-1.03,0.515 -1.03,1.03 -2.576,1.03c-0,-1.03 -0,-2.577 -0.516,-3.607l-0.515,-0c-1.546,1.546 -0.515,6.184 2.061,6.184c0.516,-0.515 0.516,-0.515 1.031,-0.515l0,0.515c-0.515,0.515 -1.031,1.546 -1.031,2.577c1.546,-0 1.546,-0 2.062,1.031c0.515,1.03 -0,2.576 0.515,3.607c1.031,4.638 0.515,10.823 1.031,15.976c-0,0.515 0.515,1.546 -0,2.062c-0.516,2.061 1.031,5.153 2.577,5.668l0.515,0c1.031,0.516 1.031,1.031 1.546,1.547c2.577,1.546 4.638,2.061 8.761,2.061l0,0.515c-2.061,2.577 0,5.154 -5.669,5.154c-2.061,-1.031 -9.276,0.515 -12.368,-0c-0.516,-0 -3.093,-0.515 -4.123,-0.515c-1.031,-0 -2.577,1.03 -4.123,0.515c-1.031,-0.515 -2.577,-0.515 -3.608,-0c-2.576,0.515 -5.153,-1.031 -7.215,-0c-2.061,0.515 -4.638,0.515 -6.184,-0c-1.546,-0.515 -2.577,0.515 -3.607,0.515l-3.608,-0.515c-0.515,-2.062 -1.546,-3.608 -2.061,-5.669l1.03,-0c2.577,1.031 7.731,-3.092 9.277,-4.123c0.515,-0.515 1.546,-0.515 2.061,-1.546c1.031,-1.546 0,-4.123 0.516,-5.154c1.546,-3.607 2.061,-12.883 1.546,-19.068l-0.516,0c-2.061,-1.03 -10.307,-1.03 -10.822,-3.607l0.515,-1.031c-0.515,0 -0.515,0 -1.031,-0.515c-3.607,2.576 -5.668,-1.031 -7.73,-0c-3.092,1.03 -3.092,-1.031 -5.669,-1.546c-1.546,-0 -1.546,1.03 -3.092,1.03c-1.546,-0.515 -3.092,-1.03 -5.154,-0.515c-0.515,1.546 -1.03,3.092 -1.546,4.123c0,1.031 0.516,2.577 0,3.607l-0.515,1.546l-0,1.031c-0.515,0.515 -1.546,1.031 -1.546,2.062c-0.515,2.061 0.515,2.576 -0.515,4.122c-0.516,1.031 -2.062,2.062 -2.577,3.093l-0,1.03c-0.516,1.031 -1.546,2.577 -2.062,3.608l0,1.03c-0.515,1.031 -1.546,2.062 -2.061,2.577l-0,1.031c-0.515,1.546 -4.638,6.184 -6.184,7.215l-0,0.515c1.546,1.546 12.368,1.546 14.945,0c1.546,-0.515 2.061,-2.061 4.123,-2.576c1.031,2.061 4.123,4.122 4.638,6.184c-1.031,0.515 -1.546,1.031 -2.061,1.546c-1.546,1.031 -4.123,1.546 -6.185,2.061l-3.092,0c-2.061,0.516 -5.153,0.516 -7.215,1.031c-1.546,0.515 -3.607,-0.515 -4.638,0c-1.031,0 -4.123,1.031 -4.638,0.515c-1.031,0 -2.577,-1.03 -4.638,0c-2.577,1.031 -4.639,3.093 -6.7,4.639c-2.062,1.546 -4.123,2.061 -7.215,3.092l-1.546,1.031l-2.062,-0c-1.03,0.515 -2.061,1.546 -3.092,2.061l-2.577,-0l-1.03,0.515c-1.546,0.516 -2.577,-0.515 -4.123,0c-2.577,0.516 -6.184,1.546 -8.246,1.031c-2.577,-0.515 -4.123,0.515 -5.153,-1.546c1.546,-2.061 0.515,-5.669 -0,-8.246l1.03,0c1.031,1.546 1.546,0.516 3.608,1.031c4.123,1.031 13.399,-1.031 17.007,-2.577l-0.516,-0.515c1.031,-0 1.031,-0 1.546,-0.516c-1.03,-0.515 -1.546,-1.546 -2.576,-2.061c-1.547,-0.515 -2.577,-0 -4.123,-0c-4.639,-0 -8.761,-0.515 -13.4,-0.515c-0.515,-0 -1.546,-0.516 -2.576,-0.516c-0.516,0 -1.031,0.516 -1.547,0.516c-2.576,-0.516 -6.699,-0.516 -9.791,-1.031c-1.546,-0.515 -3.608,0.515 -4.639,-0c-13.914,-1.546 -30.921,-1.031 -44.836,-0.515c-0.515,-0.516 -1.546,-1.547 -1.546,-2.062l0,-1.546c-0.515,-1.031 -1.03,-1.031 -1.546,-2.577c0.516,-0.515 0.516,-0.515 1.031,-0.515c3.607,2.061 9.792,-3.092 11.853,-4.638c-0.515,-2.062 1.031,-5.154 1.546,-7.215c0.516,-1.546 -1.031,-5.154 -0.515,-6.7c-0,-0.515 1.031,-2.577 1.031,-3.092c-0,-0.515 -1.031,-2.062 -0.516,-3.092c0,-0.516 0.516,-1.031 0.516,-2.062c-0.516,-1.03 -1.547,-2.576 -1.031,-4.638c0.515,-2.577 1.031,-8.246 0.515,-11.338c0,-1.031 -1.546,-7.73 -1.546,-7.73c0.515,-1.031 1.031,-1.031 1.031,-2.577c-1.031,-0.515 -1.031,-1.031 -1.546,-2.061c1.03,-1.031 0.515,-2.062 0.515,-3.608c0,-1.031 -1.546,-10.307 -2.577,-11.338l-1.546,-2.061l-2.061,-0l-0.516,-1.031c-2.061,-1.546 -5.153,-1.031 -7.73,-1.031c-0.515,-0.515 -0.515,-0.515 -0.515,-1.546c2.061,3.608 4.123,2.577 4.123,0.516Zm131.416,31.952l3.092,-0l-0,0.515l0.515,0c1.031,-1.031 3.093,-0.515 4.123,0l0,1.031l0.516,-0c0.515,-1.031 0.515,-1.546 2.576,-1.546c1.031,1.546 3.093,0.515 5.154,1.031c4.123,1.03 7.73,2.576 12.369,2.576c0.515,-0.515 0.515,-0.515 0.515,-1.546l-0,-2.061l-0.515,-0.516c-0,-1.03 1.03,-1.546 0.515,-2.576l-1.031,-0.516l0,-0.515l-1.031,-1.031l0,-2.577l0.516,-0.515c0.515,-1.031 -0.516,-2.577 -0.516,-3.092c0,-1.031 0.516,-1.546 0.516,-2.061l-0.516,-0.516l0,-2.061l-0.515,-0.516c0,-0.515 0.515,-2.061 0,-3.092c-0.515,-1.03 -2.061,-2.577 -3.092,-3.092c-2.061,2.062 -7.73,2.062 -10.307,3.092c-1.031,0.516 -1.546,2.062 -2.577,2.577c-1.546,1.031 -3.092,1.546 -4.123,3.092c-0.515,0.516 0,1.031 -0.515,1.546l-1.546,0.516l-1.031,1.546l0.515,1.03l-1.03,1.031c-0.516,1.031 -0,2.577 -0.516,3.608c-0.515,1.03 -2.061,1.03 -2.577,2.576l0.516,2.062Zm65.966,-38.137c-1.031,-0.515 -2.062,-2.061 -3.608,-1.546c-1.546,0.516 -5.153,1.031 -7.215,1.031c-1.031,-1.546 -3.092,-3.607 -5.669,-4.123l0,-1.546c1.031,-0.515 1.546,-1.546 3.608,-1.546c0.515,0.515 0.515,1.031 1.546,1.031l-0,-1.031l-0.516,-0.515c8.246,-5.154 22.161,-3.608 31.437,-0.516c2.062,0.516 7.731,2.577 8.246,3.608l-0.515,1.031c0.515,0.515 0.515,0.515 1.03,0.515l0.516,-1.546l0.515,-0l0,2.061c1.031,0 1.546,-0.515 2.061,-0.515c0.516,-0 4.123,1.546 4.639,2.061c1.03,1.031 1.546,1.546 2.576,2.577c1.031,0 1.547,0.515 2.577,0.515c1.031,1.031 2.062,1.547 3.092,2.577c0.516,1.031 0.516,1.546 1.031,2.577c1.031,1.031 4.638,1.546 5.154,3.092c0.515,0.516 -0,1.546 -0,2.062c1.546,1.03 2.061,-0 2.061,2.576l0,0.516l1.546,1.03c0.516,-0.515 1.031,-0.515 2.577,-0.515l0,1.031c3.092,-0 2.061,2.577 3.608,3.607c0.515,0.516 1.03,0.516 1.546,1.031l0.515,1.546l1.031,0.515l-0,1.547c0.515,0.515 2.061,0.515 2.576,1.03c0.516,0.516 0.516,1.546 1.031,2.062l1.546,1.03c0.516,0.516 0,1.031 0.516,1.546l1.546,1.031l0.515,2.062c1.031,-0 1.031,-0.516 1.546,0.515c0,-0 -0.515,0.515 0,1.031c0.515,0.515 2.062,1.03 2.577,1.546c1.546,1.546 2.061,3.607 3.607,5.153l1.031,1.031l2.062,3.092l-0,1.546l0.515,0c0.515,0.516 1.031,0 1.546,0l-0,1.031c0.515,0.515 1.546,1.031 2.061,1.031c-0.515,0.515 -0.515,0.515 -0.515,1.03c1.031,0.516 4.123,4.123 4.638,5.154c0,0.515 -0.515,1.546 -0.515,2.061c1.031,0 1.546,0.516 1.546,1.547c-0.515,1.03 0.515,2.061 2.577,2.061c0.515,-1.031 0.515,-3.092 0.515,-4.638l0,-1.031c-1.031,-0.515 -1.031,-0.515 -1.031,-1.546c1.031,-1.546 -0.515,-3.092 0,-5.154l0.516,-0.515c-0,-1.031 -0.516,-2.061 -1.031,-3.092l0,-15.976l-1.031,-1.031c0.516,-0.515 0.516,-1.031 0.516,-1.546l-0.516,-0.515c1.031,-0.516 1.031,-2.577 1.031,-3.608c-0.515,-0.515 -1.031,-1.546 -1.546,-2.577l0.515,-0.515l0,1.031l-0.515,-1.546l-0,-2.577c-0.515,-1.546 -4.123,-6.7 -5.669,-7.215c-2.061,-1.546 -4.638,-1.546 -7.215,-2.577l0,-0.515c1.031,-1.031 0,-3.608 1.031,-4.639c1.03,-0.515 3.607,-0.515 4.638,0c1.031,0.516 2.061,-0.515 3.092,0c0.515,0 0.515,1.031 1.546,1.031l0,-0.515c1.546,-1.031 4.123,-0 6.184,-0c3.093,-0.516 6.185,0.515 8.762,1.031c4.122,1.03 8.761,-1.031 12.368,-0c0.516,2.061 2.577,3.092 3.608,5.153c-1.031,0.515 -3.608,1.031 -5.154,1.546c-1.031,0.516 -1.546,1.546 -2.061,2.062c-0.516,0.515 -1.546,-0 -2.062,0.515c-0.515,0.515 -1.031,1.031 -1.546,1.546c0.515,1.546 0.515,1.546 -0.515,2.577c-0,0.515 0.515,0.515 0.515,1.546l-1.546,1.031c-0.515,1.03 0.515,1.546 0,2.576l-1.031,0.516l0,4.638c0,0.515 1.031,2.577 0.516,3.607l-0.516,0.516l0,4.638c0,0.515 -1.03,1.031 -0.515,1.546l1.031,3.608c-0.516,2.061 -1.031,4.638 -1.031,6.699c1.031,0.516 1.031,0.516 1.031,2.062c-0.516,1.03 0.515,2.061 0.515,3.092l-0.515,0.515c-0,1.031 1.03,1.031 1.03,1.546c0,0.516 -0.515,1.546 0,2.062c-0.515,0.515 -1.03,0.515 -1.03,1.546c1.03,1.031 -0.516,1.031 -0,2.577c-0,0.515 1.03,1.03 0.515,2.576l-0.515,1.031c0.515,3.608 1.03,8.761 1.546,13.399c-0,1.031 -1.031,1.546 -0.516,2.577c0,0.516 0.516,0.516 1.031,1.546c-0.515,0.516 -0.515,3.608 -0.515,5.669c2.577,1.546 4.123,4.123 6.184,6.184l0,3.093c0.515,-0 1.546,0.515 2.062,0.515l0.515,1.546c0.515,0 1.031,0.515 2.061,0.515c1.031,1.031 1.546,1.547 2.577,2.577c1.546,1.031 3.608,1.031 5.154,2.062c1.546,1.03 4.123,2.576 6.699,2.061c2.062,-0.515 4.123,-1.546 6.185,-1.546c0.515,1.031 1.03,2.577 2.061,3.608c0,0.515 -0.515,1.03 -0.515,2.061c1.03,0.515 3.092,2.061 3.607,3.092c-1.546,2.062 -1.546,0.515 -3.607,1.546c-0.516,0.516 -2.062,1.546 -3.092,1.546c-1.031,0.516 -1.547,-0.515 -2.577,-0.515l-2.062,1.031l-5.669,-0c-2.061,-0 -3.607,0.515 -5.153,-0l-1.031,-1.031l-2.061,-0c-1.031,-0 -2.062,-1.031 -3.092,-1.031c-1.031,0 -2.062,-0.515 -3.093,-0.515c-1.03,-0.516 -2.061,-1.546 -2.576,-1.546c-1.547,-0.516 -2.062,0.515 -3.608,-0l-2.061,-2.577l-2.062,-0c-0.515,-0.515 -2.061,-2.061 -2.577,-3.092c-2.576,-2.062 -5.153,-3.608 -7.73,-5.669c-1.546,-1.031 -2.061,-3.092 -3.607,-4.123c-1.031,-1.031 -2.062,-2.577 -3.093,-3.608c-1.546,-1.546 -4.638,-2.576 -5.153,-5.153l-0,-1.031c0.515,-0.515 1.546,-0.515 2.577,-1.031c0.515,-1.03 1.03,-2.576 1.03,-3.607c-1.03,-0 -1.546,-0.515 -2.061,-1.031c-1.031,0.516 -4.123,1.546 -5.669,1.546c-3.092,-1.03 -6.7,-6.699 -8.246,-9.276l0,-1.031c-2.061,-2.577 -4.638,-4.638 -6.699,-7.215c0.515,-0.515 0.515,-0.515 0.515,-1.031c-2.061,-1.03 -5.154,-3.092 -5.154,-6.184l-0.515,-1.031l1.031,-1.03c-1.031,-1.031 -2.062,-0.516 -3.608,-1.031l-3.092,-2.577c-0.515,-1.03 0,-2.577 -0.515,-3.607l-1.546,-1.031l-0,-1.031l-1.546,-1.546l-0,-1.03c-1.031,-1.547 -3.093,-2.062 -3.608,-3.608l-0.515,-1.546c-0.516,-0.515 -1.546,-0.515 -2.062,-1.031l0,-2.577l-2.061,-1.03l-0,-1.546c-0.516,-1.031 -3.608,-4.123 -5.154,-4.639l0,1.546c0.516,0.516 1.031,1.031 1.546,2.062c-1.03,0.515 -2.576,1.031 -2.576,2.577c0.515,0.515 1.546,3.092 1.546,3.607c-0.516,0.516 -1.031,1.031 -1.546,2.062c1.546,1.546 -1.547,5.153 0.515,6.699c-0,0.516 -0.515,0.516 -0.515,1.031c1.03,0.515 1.03,2.577 1.03,4.123l0,0.515c0,0.516 0.516,0.516 1.031,1.031c-1.031,1.031 -1.546,4.638 -1.031,6.7c1.031,4.122 1.546,8.245 2.062,12.884l-0.516,1.546l1.031,1.03c0.515,1.031 -1.031,1.546 -0.515,3.092c-0,1.031 0.515,2.062 0.515,3.093c1.031,0.515 3.092,1.546 3.608,2.061c0.515,1.031 -0.516,0.515 0.515,1.031c1.031,-0.516 2.577,0.515 3.607,1.03c1.546,0.516 2.577,-0.515 3.608,-0.515c-1.031,1.546 -1.546,4.123 -3.092,5.154c-1.546,-0.516 -4.123,-0 -5.669,-0c-2.577,-0.516 -6.7,-0.516 -9.277,-0l-3.092,-0c-1.03,-0 -2.061,0.515 -3.092,0.515c-2.061,0.515 -4.638,-0.515 -6.7,-0.515l-9.791,-0c-0,-2.062 -0.516,-3.608 -0.516,-5.154l0.516,0c1.546,0 3.092,-0.515 4.123,-0.515c2.576,-0.516 2.576,-2.577 4.122,-3.608c1.546,-1.03 3.093,-1.03 3.608,-3.092c-1.031,-1.546 1.546,-5.669 1.031,-6.7c-0.516,-0.515 -0.516,-0.515 -0.516,-1.03c1.031,-1.031 0,-4.638 0.516,-6.7c1.03,-3.092 0.515,-10.822 -0.516,-14.43c0,-1.031 1.031,-0.515 0.516,-1.546c-0,-0.515 -0.516,0 -0.516,-1.031c0,-0.515 0.516,-1.03 0.516,-1.546c0.515,-1.03 -0.516,-1.546 -0.516,-2.061c0,-1.546 0.516,-1.031 0.516,-1.546c0.515,-0.516 -0.516,-1.031 -0.516,-1.546c-0.515,-2.577 0,-4.123 -0.515,-6.185c-0.515,-1.546 -0,-3.607 -0,-4.123c-0,-1.546 -0.515,-3.607 -0.515,-4.122l-0,-1.546l-0.516,-0c-0.515,-1.547 0.516,-3.608 0.516,-4.123l-0.516,-1.031c-0.515,-2.061 -0.515,-5.669 0,-6.7c0.516,-1.03 -0.515,-1.546 -0.515,-2.576c-0,-0.516 0.515,-0.516 0.515,-1.031l-1.546,-1.031c-1.031,-0.515 -1.546,0 -2.061,-0.515l-1.031,-1.546c-1.031,-1.031 -2.577,-1.546 -4.123,-2.577c-1.546,-1.031 -2.577,-3.092 -4.123,-3.608c-1.546,-0.515 -3.092,0.516 -5.153,0Zm-896.208,38.652c-1.03,1.546 -3.607,2.062 -5.668,3.092c-1.547,0.516 -3.608,2.062 -5.154,2.577c-3.608,1.031 -13.915,-0.515 -15.976,-2.061c-1.546,-1.546 -4.123,-4.123 -4.638,-6.7c-0.516,-2.061 0.515,-4.638 0.515,-7.215l1.546,0c0,-1.031 -0.515,-1.031 -0.515,-2.061c1.03,-0.516 1.03,-1.546 1.546,-2.577c1.546,-2.062 7.73,-6.7 11.338,-6.7c0.515,1.031 -0,1.546 0.515,2.062l0.515,-0c0,-1.031 0.516,-2.577 1.546,-2.577c1.547,1.031 4.123,-0.516 6.7,-0c1.031,0.515 1.031,1.546 2.062,1.546l2.061,-0c1.546,0.515 5.154,3.607 5.669,5.153c0.515,1.031 -0.515,2.577 -0,3.608c0.515,1.546 1.546,1.031 1.546,3.607c-1.031,0.516 -1.031,2.577 -1.031,3.093c-0.515,2.576 -2.061,4.122 -2.577,5.153Zm-5.668,-13.399c-1.031,-0.515 -1.031,-2.062 -2.062,-2.577c-1.546,-1.031 -4.123,-1.031 -6.184,-1.031c-1.546,1.546 -4.123,2.062 -5.154,3.608l0,1.546c-0.515,0.515 -1.546,1.031 -2.061,2.061l-0,1.546c-0.516,2.577 -1.546,5.669 -1.546,8.762c1.03,0.515 1.546,1.546 3.092,1.546l6.184,-0.516c0.516,0 0.516,0.516 1.546,0.516l0,-0.516c-0.515,-0.515 -0.515,-0.515 -0.515,-1.03c2.061,-1.031 2.577,-2.577 5.153,-3.093c0,-1.03 0.516,-1.546 1.031,-2.061c0,-0.515 -0.515,-1.031 0,-1.546l1.031,-1.546c-0,-2.062 -0.515,-3.608 -0.515,-5.669Zm-634.406,-118.017c1.546,-2.061 3.092,-2.061 3.092,-2.061c24.737,-7.731 54.113,8.245 54.113,8.245c27.314,14.946 31.952,31.437 30.921,38.137c-0.515,6.184 -3.607,17.007 -20.614,21.645c-11.338,3.092 -22.16,1.03 -27.829,-0.516c-0,2.577 -0.516,3.093 -1.031,3.608c-0.515,0.515 -4.123,2.577 -6.184,-0.515c-1.031,-1.547 -1.031,-4.123 -1.546,-6.185c-12.884,-6.184 -19.069,-15.46 -19.069,-15.46c0,-0.516 -3.092,-3.608 0,-7.215c2.577,-3.608 12.369,-6.7 20.615,-7.731c0.515,-7.215 1.546,-12.368 2.576,-14.945c1.031,-2.577 2.577,-0 4.123,1.546c1.031,1.546 1.546,7.73 1.546,12.368c5.669,0 8.761,0.516 14.43,1.547c7.731,1.546 12.884,5.668 12.369,10.307c-0.515,4.638 -4.638,6.184 -6.184,6.184c-1.546,-0 -4.123,-1.031 -4.123,-1.031c-1.546,-1.03 -0,-1.546 2.061,-2.577c2.577,-1.03 2.062,-2.061 2.062,-2.061c-0.516,-2.577 -10.823,-4.638 -21.13,-4.638c-0.515,5.669 -0.515,14.945 -0.515,20.614c7.215,1.546 12.368,1.546 12.368,1.546c0,0 26.283,0 27.314,-16.491c1.031,-16.492 -25.252,-33.499 -44.836,-39.167c-19.584,-5.669 -30.921,-2.577 -31.952,-2.062c-1.031,0.515 -0,0.515 -0,0.515c-0,0 1.031,0 3.092,1.031c2.061,0.516 0.515,1.546 0.515,1.546c-3.092,1.031 -7.215,0 -7.73,-1.546c-1.031,-1.031 0,-2.577 1.546,-4.638Zm14.43,41.744c-2.577,1.031 -1.031,3.092 -1.031,3.092c5.154,5.669 11.338,9.277 17.523,11.853c1.03,-9.791 1.03,-12.884 1.03,-18.037c-9.276,0.515 -14.945,2.061 -17.522,3.092Zm70.089,-25.253c0.515,-2.576 5.153,-11.337 18.037,-11.853c0,0 6.185,-0.515 7.215,3.092c0,0 6.185,0 5.669,5.669c0,5.669 -7.215,11.854 -13.914,14.43c-4.639,1.546 -7.731,1.031 -9.792,-0.515c-1.031,2.061 -1.546,2.577 -2.577,2.577c-1.031,-0 -2.577,-2.062 -2.577,-2.577c0,-0.515 -0.515,-1.546 0,-3.092c-2.577,-2.577 -2.577,-5.669 -2.061,-7.731Zm26.283,-0.515c0,0 2.061,-4.123 -2.577,-3.607c-4.123,0.515 -10.307,5.669 -13.399,10.307c4.123,0.515 12.369,0.515 15.976,-6.7Zm-21.645,3.092c1.546,-2.061 4.638,-5.669 8.761,-8.246c-3.092,0 -5.669,1.547 -7.73,4.123c-1.546,2.062 -1.546,3.608 -1.031,4.123Zm2.061,30.922c0.516,-7.215 1.031,-15.976 2.577,-17.007c1.546,-1.546 2.577,-0 3.092,1.031c0.516,1.03 1.546,2.061 1.546,4.122c0,2.062 0.516,13.915 0.516,13.915c-0,0 0.515,10.307 -1.031,11.338c-1.546,1.031 -4.638,0.515 -5.669,-0.515c-1.031,-1.031 -1.546,-5.669 -1.031,-12.884Zm35.045,0.515c-2.062,-1.546 -8.761,-2.577 -11.338,-2.577c-2.577,0 -11.338,-0.515 -12.884,-2.577c-0,0 -1.546,-1.546 0.515,-6.184c1.546,-4.638 12.369,-6.184 17.007,-6.699c0,-0 12.369,-0 14.945,2.576c0,0 0.516,0.516 0,1.546c-0.515,1.031 -1.03,2.062 -3.092,2.577c0,0 -21.645,1.031 -22.675,2.577c-0,-0 -1.031,1.031 0.515,1.031c1.031,0.515 6.184,1.03 8.246,1.03c2.576,0 10.822,0.516 13.914,4.123c0,0 1.546,2.062 1.546,6.185c0,4.122 -1.03,5.668 -2.576,7.215c-1.546,1.546 -16.492,7.73 -25.768,-2.577c-0,-0 -4.123,-5.154 1.546,-8.246c-0,0 4.123,-2.577 14.945,1.031c0,-0 3.092,1.546 3.092,2.577c0,1.03 -2.576,2.576 -6.184,2.061c-3.607,-0 -6.184,-2.061 -5.669,-1.546c0.515,0.515 -3.607,-2.062 -5.153,-0.515c-1.547,1.546 -1.031,2.061 -0,3.092c3.092,2.061 15.976,1.546 19.583,-2.577c0,-1.031 1.546,-2.577 -0.515,-4.123Zm8.245,1.031c0.516,-6.185 2.577,-12.884 4.123,-14.946c2.062,-2.061 3.608,-0.515 4.123,0c0,0 2.577,2.577 6.185,9.277l0.515,1.031l4.123,6.699l0.515,0l0,-2.061c0,-0 -0.515,-6.7 -3.607,-18.553c-0,-0 -0.516,-1.546 -0,-2.577c0.515,-1.546 1.546,-0.515 1.546,-0.515c-0,-0 5.153,2.577 7.73,11.853c2.577,8.761 0.515,16.491 -0.515,19.068c-1.031,2.577 -3.608,4.638 -7.215,3.092c-3.092,-1.546 -8.246,-12.368 -8.246,-12.368l-2.062,-4.123c0,-0 -0.515,-0.515 -0.515,3.607c-0.515,4.123 -0.515,12.369 -2.061,13.915c-1.546,1.031 -3.608,0.515 -4.639,-1.031c-0.515,-2.576 -1.03,-6.184 0,-12.368Zm30.407,-0c-0,-0 -1.546,-3.608 -0,-4.638c-0,-0 0.515,-0.516 2.576,-0.516l2.577,-4.638c0,-0 -2.577,-0 -4.123,-2.061c-1.546,-2.062 -1.546,-2.577 -0.515,-3.093c1.031,-0.515 12.884,-2.576 20.614,-2.061c0,-0 2.577,-0 5.154,4.638c-0,0 1.031,2.062 -1.031,2.577c-3.607,1.031 -13.915,1.031 -13.915,1.031l-1.03,4.123c-0,-0 4.638,-0.516 8.245,-0c0,-0 1.031,-0 1.031,1.546l0,3.092c0,-0 0,1.03 -1.546,1.03c-1.546,0 -10.822,0.516 -10.822,0.516l-1.546,5.153c-0,0 -0.516,1.031 0.515,1.031c1.031,-0.515 10.822,-1.546 12.368,-1.546c1.547,0.515 2.577,2.061 2.577,3.608c-0.515,2.061 -10.307,7.73 -16.491,7.215c-0,-0 -3.092,-0 -5.669,-4.123c-2.577,-5.154 1.031,-12.369 1.031,-12.884Zm25.767,9.276c-1.546,-2.061 -2.061,-5.669 -1.03,-10.307c-0,0 1.546,-8.761 10.307,-15.976c-0,-0 1.031,-1.031 1.546,-0.515c0.515,0.515 0.515,3.092 -0.515,4.638c-0.516,1.546 -4.639,7.73 -4.639,7.73c0,0 -2.576,4.638 -2.061,8.246c4.638,-6.7 15.461,-20.614 21.645,-15.976c4.123,3.092 3.608,12.368 0.515,17.522c-2.576,4.123 -9.791,12.884 -18.553,10.307c-3.092,7.215 -5.668,14.43 -7.73,25.253c0,-0 -0.515,2.061 -2.061,1.546c-1.546,-0.516 -4.639,-3.608 -5.154,-7.731c0,-5.153 2.577,-14.43 7.73,-24.737Zm19.584,-5.153c1.546,-1.546 5.669,-5.669 5.154,-10.823c-0,0 -0.516,-3.092 -3.092,0c-2.577,2.577 -6.7,7.215 -10.308,13.915c3.608,-0.516 7.215,-2.062 8.246,-3.092Z" style="fill-rule:nonzero;"/></g></svg>